<svg width="256" height="256" viewBox="0 0 256 256" fill="none" xmlns="http://www.w3.org/2000/svg">
<path fill-rule="evenodd" clip-rule="evenodd" d="M215.754 124.215C214.396 122.835 214.024 120.719 214.907 118.996C224.254 100.76 225.202 80.8326 211.942 64.0753C200.549 49.6763 186.828 45.0393 173.846 46.0402C160.461 47.0723 147.209 54.1876 137.92 64.5109C137.753 64.696 137.588 64.8821 137.425 65.0692C137.318 65.1919 137.208 65.3108 137.096 65.4261L133.8 69.0896C131.672 71.4545 127.905 71.2568 126.037 68.682L123.133 64.6811C122.098 63.2561 120.987 61.8802 119.799 60.5598C102.102 40.8933 73.8426 40.8933 56.1456 60.5598C37.9531 80.7769 37.9531 113.909 56.1456 134.126L56.4801 134.498L56.7713 134.905C58.9833 137.992 61.322 140.551 63.7257 142.648L64.1354 143.005L64.4991 143.41L126.92 212.778C128.907 214.985 132.368 214.985 134.354 212.778L152.784 192.296C154.098 190.836 156.237 190.526 157.979 191.433V191.433C160.527 192.761 161.389 196.189 159.466 198.325L134.354 226.232C132.368 228.44 128.907 228.44 126.92 226.232L57.809 149.43C54.8484 146.847 52.0467 143.763 49.4554 140.146C28.1831 116.507 28.1831 78.1794 49.4554 54.5397C70.0888 31.6101 103.157 30.9214 124.537 52.4734L124.571 52.5075C125.221 53.1643 125.861 53.8417 126.489 54.5397C127.509 55.6732 128.48 56.8404 129.402 58.0382L129.461 58.114C129.778 58.528 130.09 58.9455 130.396 59.3665V59.3665C130.407 59.381 130.428 59.3821 130.44 59.3688L130.636 59.1502C130.637 59.1497 130.638 59.1497 130.638 59.1501V59.1501C130.641 59.1519 130.644 59.1516 130.646 59.1492L130.679 59.112C130.861 58.9038 131.044 58.6967 131.23 58.4908C132.931 56.6008 134.751 54.7989 136.675 53.1003C136.765 53.0202 136.905 53.0343 136.978 53.131C136.994 53.1527 137.01 53.1744 137.027 53.1961C137.074 53.2592 137.166 53.2682 137.224 53.2153V53.2153C137.279 53.1657 137.284 53.0807 137.233 53.0264C137.215 53.0063 137.196 52.9863 137.177 52.9664C137.091 52.8754 137.096 52.7309 137.191 52.649C159.365 33.4642 194.807 27.916 219 58.4908C235.325 79.1222 233.328 102.949 222.656 123.516C221.323 126.085 217.785 126.278 215.754 124.215V124.215Z" fill="#F8F9FA"/>
<ellipse cx="184" cy="154" rx="38" ry="37" fill="#FCC220"/>
<ellipse cx="184" cy="154" rx="38" ry="37" fill="#FCC220"/>
<ellipse cx="184" cy="154" rx="38" ry="37" fill="#FCC220"/>
<rect x="168" y="150" width="36" height="7" rx="3.5" fill="#F8F9FA"/>
<rect x="168" y="150" width="36" height="7" rx="3.5" fill="#F8F9FA"/>
<rect x="182" y="172" width="37" height="6" rx="3" transform="rotate(-90 182 172)" fill="#F8F9FA"/>
<rect x="182" y="172" width="37" height="6" rx="3" transform="rotate(-90 182 172)" fill="#F8F9FA"/>
</svg>
