<svg width="720" height="1043" viewBox="0 0 720 1043" fill="none" xmlns="http://www.w3.org/2000/svg">
<g opacity="0.07">
<path d="M720 353L360 -7.00002L360 353L720 353Z" fill="#F2F2F2"/>
<path d="M720 353L360 353L540 173L720 353Z" fill="#BDBDBD"/>
<path d="M446.5 266.5C470.323 290.4 503.717 305 540 305C576.383 305 609.677 290.4 633.5 266.5L540 173L446.5 266.5Z" fill="#828282"/>
<path d="M446.5 266.5L540 173L446.5 79.5C422.6 103.323 408 136.717 408 173C408 209.283 422.6 242.677 446.5 266.5Z" fill="#F2F2F2"/>
</g>
<g opacity="0.07">
<path d="M360 -7L720 353L720 -7L360 -7Z" fill="#828282"/>
<path d="M360 -7L720 -7L540 173L360 -7Z" fill="#F2F2F2"/>
<path d="M633.5 79.5C609.677 55.6 576.283 41 540 41C503.617 41 470.323 55.6 446.5 79.5L540 173L633.5 79.5Z" fill="#F2F2F2"/>
<path d="M633.5 79.5L540 173L633.5 266.5C657.4 242.677 672 209.283 672 173C672 136.717 657.4 103.323 633.5 79.5Z" fill="#BDBDBD"/>
</g>
<g opacity="0.07">
<path d="M360 683L0 683L360 323L360 683Z" fill="#828282"/>
<path d="M360 395L360 323L288 395L360 395Z" fill="#F2F2F2"/>
<path d="M288 395L288 467L216 467L288 395Z" fill="#F2F2F2"/>
<path d="M216 467L216 539L144 539L216 467Z" fill="#F2F2F2"/>
<path d="M144 539L144 611L72 611L144 539Z" fill="#F2F2F2"/>
<path d="M72 611L72 683L0 683L72 611Z" fill="#F2F2F2"/>
<path d="M144 611L72 683L144 683L144 611Z" fill="#F2F2F2"/>
<path d="M216 539L144 611L216 611L216 539Z" fill="#F2F2F2"/>
<path d="M288 467L216 539L288 539L288 467Z" fill="#F2F2F2"/>
<path d="M360 467L288 539L360 539L360 467Z" fill="#F2F2F2"/>
<path d="M216 611L144 683L216 683L216 611Z" fill="#F2F2F2"/>
<path d="M288 539L216 611L288 611L288 539Z" fill="#F2F2F2"/>
<path d="M360 539L288 611L360 611L360 539Z" fill="#F2F2F2"/>
<path d="M360 611L288 683L360 683L360 611Z" fill="#F2F2F2"/>
<path d="M288 611L216 683L288 683L288 611Z" fill="#F2F2F2"/>
<path d="M360 395L288 467L360 467L360 395Z" fill="#F2F2F2"/>
</g>
<g opacity="0.07">
<path d="M0 323V683L360 323H0Z" fill="#BDBDBD"/>
</g>
<g opacity="0.07">
<path d="M540 859L720 679L360 679L540 859Z" fill="#828282"/>
<path d="M541.1 711.3C500 711.3 462.8 728 435.8 754.9L444.3 763.4C469.1 738.6 503.3 723.3 541.1 723.3C578.3 723.3 612 738.2 636.7 762.2L645.2 753.7C618.4 727.5 581.7 711.3 541.1 711.3Z" fill="#BDBDBD"/>
<path d="M541.1 734.1C506.3 734.1 474.8 748.2 452 771L461.8 780.8C482.1 760.5 510.1 748 541.1 748C571.5 748 599 760.1 619.2 779.7L629 769.9C606.4 747.8 575.4 734.1 541.1 734.1Z" fill="#BDBDBD"/>
<path d="M540 859L720 679L720 1039L540 859Z" fill="#828282"/>
<path d="M678 860.1C678 897.9 662.7 932.1 637.9 956.9L646.4 965.4C673.3 938.5 690 901.2 690 860.1C690 818.4 672.9 780.7 645.2 753.7L636.7 762.2C662.2 787.1 678 821.8 678 860.1Z" fill="#BDBDBD"/>
<path d="M629.1 769.9L619.3 779.7C640.3 800.1 653.3 828.6 653.3 860.1C653.3 891.1 640.7 919.1 620.5 939.4L630.3 949.2C653.1 926.4 667.2 894.9 667.2 860.1C667.1 824.8 652.6 792.8 629.1 769.9Z" fill="#BDBDBD"/>
</g>
<g opacity="0.07">
<path d="M720 1039L360 679L360 1039L720 1039Z" fill="#F2F2F2"/>
<path d="M720 1039L360 1039L540 859L720 1039Z" fill="#F2F2F2"/>
</g>
</svg>
