<svg width="720" height="1062" viewBox="0 0 720 1062" fill="none" xmlns="http://www.w3.org/2000/svg">
<g opacity="0.07">
<path d="M180 882L360 1062L360 702L180 882Z" fill="#828282"/>
<path d="M180 882L360 1062L0 1062L180 882Z" fill="#F2F2F2"/>
</g>
<g opacity="0.07">
<path d="M720 342L360 702H720V342Z" fill="#BDBDBD"/>
<path d="M720 342V702L540 522L720 342Z" fill="#F2F2F2"/>
<path d="M633.5 615.5C657.4 591.677 672 558.283 672 522C672 485.617 657.4 452.323 633.5 428.5L540 522L633.5 615.5Z" fill="#BDBDBD"/>
<path d="M633.5 615.5L540 522L446.5 615.5C470.323 639.4 503.717 654 540 654C576.283 654 609.677 639.4 633.5 615.5Z" fill="#F2F2F2"/>
</g>
<g opacity="0.07">
<path d="M360 342V702L432 630V342H360Z" fill="#F2F2F2"/>
<path d="M432 342V630L504 558V342H432Z" fill="#828282"/>
<path d="M474 504L456 522L450 528L474 552L486 540L474 528L486 516L474 504Z" fill="#F2F2F2"/>
<path d="M474 432L456 450L450 456L474 480L486 468L474 456L486 444L474 432Z" fill="#F2F2F2"/>
<path d="M474 360L456 378L450 384L474 408L486 396L474 384L486 372L474 360Z" fill="#F2F2F2"/>
<path d="M504 342V558L576 486V342H504Z" fill="#F2F2F2"/>
<path d="M576 342V486L648 414V342H576Z" fill="#828282"/>
<path d="M648 342H720L648 414V342Z" fill="#F2F2F2"/>
<path d="M618 360L600 378L594 384L618 408L630 396L618 384L630 372L618 360Z" fill="#F2F2F2"/>
</g>
<g opacity="0.07">
<path d="M360 1062L360 702L720 1062L360 1062Z" fill="#BDBDBD"/>
<path d="M648 1062L720 1062L648 990L648 1062Z" fill="#F2F2F2"/>
<path d="M648 990L576 990L576 918L648 990Z" fill="#F2F2F2"/>
<path d="M576 918L504 918L504 846L576 918Z" fill="#F2F2F2"/>
<path d="M504 846L432 846L432 774L504 846Z" fill="#F2F2F2"/>
<path d="M432 774L360 774L360 702L432 774Z" fill="#F2F2F2"/>
<path d="M432 846L360 774L360 846L432 846Z" fill="#F2F2F2"/>
<path d="M504 918L432 846L432 918L504 918Z" fill="#F2F2F2"/>
<path d="M576 990L504 918L504 990L576 990Z" fill="#F2F2F2"/>
<path d="M576 1062L504 990L504 1062L576 1062Z" fill="#F2F2F2"/>
<path d="M432 918L360 846L360 918L432 918Z" fill="#F2F2F2"/>
<path d="M504 990L432 918L432 990L504 990Z" fill="#F2F2F2"/>
<path d="M504 1062L432 990L432 1062L504 1062Z" fill="#F2F2F2"/>
<path d="M432 1062L360 990L360 1062L432 1062Z" fill="#F2F2F2"/>
<path d="M432 990L360 918L360 990L432 990Z" fill="#F2F2F2"/>
<path d="M648 1062L576 990L576 1062L648 1062Z" fill="#F2F2F2"/>
</g>
<g opacity="0.07">
<path d="M720 702V1062L360 702H720Z" fill="#BDBDBD"/>
<path d="M672 702L636 702L636 978L672 1014L672 702Z" fill="#F2F2F2"/>
<path d="M600 702L564 702L564 906L600 942L600 702Z" fill="#F2F2F2"/>
<path d="M528 702L492 702L492 834L528 870L528 702Z" fill="#F2F2F2"/>
<path d="M456 702L420 702L420 762L456 798L456 702Z" fill="#F2F2F2"/>
<path d="M696 954L672 978V954L684 942L696 954Z" fill="#828282"/>
<path d="M648 954L672 978V954L660 942L648 954Z" fill="#F2F2F2"/>
<path d="M696 882L672 906V882L684 870L696 882Z" fill="#828282"/>
<path d="M648 882L672 906V882L660 870L648 882Z" fill="#F2F2F2"/>
<path d="M696 810L672 834V810L684 798L696 810Z" fill="#828282"/>
<path d="M648 810L672 834V810L660 798L648 810Z" fill="#F2F2F2"/>
<path d="M696 738L672 762V738L684 726L696 738Z" fill="#828282"/>
<path d="M648 738L672 762V738L660 726L648 738Z" fill="#F2F2F2"/>
<path d="M624 882L600 906V882L612 870L624 882Z" fill="#828282"/>
<path d="M576 882L600 906V882L588 870L576 882Z" fill="#F2F2F2"/>
<path d="M624 810L600 834V810L612 798L624 810Z" fill="#828282"/>
<path d="M576 810L600 834V810L588 798L576 810Z" fill="#F2F2F2"/>
<path d="M624 738L600 762V738L612 726L624 738Z" fill="#828282"/>
<path d="M576 738L600 762V738L588 726L576 738Z" fill="#F2F2F2"/>
<path d="M552 810L528 834V810L540 798L552 810Z" fill="#828282"/>
<path d="M504 810L528 834V810L516 798L504 810Z" fill="#F2F2F2"/>
<path d="M552 738L528 762V738L540 726L552 738Z" fill="#828282"/>
<path d="M504 738L528 762V738L516 726L504 738Z" fill="#F2F2F2"/>
<path d="M480 738L456 762V738L468 726L480 738Z" fill="#828282"/>
<path d="M432 738L456 762V738L444 726L432 738Z" fill="#F2F2F2"/>
</g>
<g opacity="0.07">
<path d="M11 690V1050L371 690H11Z" fill="#BDBDBD"/>
<path d="M59 690L95 690L95 966L59 1002L59 690Z" fill="#F2F2F2"/>
<path d="M131 690L167 690L167 894L131 930L131 690Z" fill="#F2F2F2"/>
<path d="M203 690L239 690L239 822L203 858L203 690Z" fill="#F2F2F2"/>
<path d="M275 690L311 690L311 750L275 786L275 690Z" fill="#F2F2F2"/>
<path d="M35 942L59 966V942L47 930L35 942Z" fill="#828282"/>
<path d="M83 942L59 966V942L71 930L83 942Z" fill="#F2F2F2"/>
<path d="M35 870L59 894V870L47 858L35 870Z" fill="#828282"/>
<path d="M83 870L59 894V870L71 858L83 870Z" fill="#F2F2F2"/>
<path d="M35 798L59 822V798L47 786L35 798Z" fill="#828282"/>
<path d="M83 798L59 822V798L71 786L83 798Z" fill="#F2F2F2"/>
<path d="M35 726L59 750V726L47 714L35 726Z" fill="#828282"/>
<path d="M83 726L59 750V726L71 714L83 726Z" fill="#F2F2F2"/>
<path d="M107 870L131 894V870L119 858L107 870Z" fill="#828282"/>
<path d="M155 870L131 894V870L143 858L155 870Z" fill="#F2F2F2"/>
<path d="M107 798L131 822V798L119 786L107 798Z" fill="#828282"/>
<path d="M155 798L131 822V798L143 786L155 798Z" fill="#F2F2F2"/>
<path d="M107 726L131 750V726L119 714L107 726Z" fill="#828282"/>
<path d="M155 726L131 750V726L143 714L155 726Z" fill="#F2F2F2"/>
<path d="M179 798L203 822V798L191 786L179 798Z" fill="#828282"/>
<path d="M227 798L203 822V798L215 786L227 798Z" fill="#F2F2F2"/>
<path d="M179 726L203 750V726L191 714L179 726Z" fill="#828282"/>
<path d="M227 726L203 750V726L215 714L227 726Z" fill="#F2F2F2"/>
<path d="M251 726L275 750V726L263 714L251 726Z" fill="#828282"/>
<path d="M299 726L275 750V726L287 714L299 726Z" fill="#F2F2F2"/>
</g>
<g opacity="0.07">
<path d="M179 180L-1 360H359L179 180Z" fill="#828282"/>
<path d="M177.9 327.7C219 327.7 256.2 311 283.2 284.1L274.7 275.6C249.9 300.4 215.7 315.7 177.9 315.7C140.7 315.7 107 300.8 82.2999 276.8L73.7999 285.3C100.6 311.5 137.3 327.7 177.9 327.7Z" fill="#BDBDBD"/>
<path d="M177.9 304.9C212.7 304.9 244.2 290.8 267 268L257.2 258.2C236.9 278.5 208.9 291 177.9 291C147.5 291 120 278.9 99.8002 259.3L90.0002 269.1C112.6 291.2 143.6 304.9 177.9 304.9Z" fill="#BDBDBD"/>
<path d="M179 180L-1 360V0L179 180Z" fill="#F2F2F2"/>
<path d="M41.0001 178.9C41.0001 141.1 56.3001 106.9 81.1001 82.0998L72.6001 73.5998C45.7001 100.5 29.0001 137.8 29.0001 178.9C29.0001 220.6 46.1001 258.3 73.8001 285.3L82.3001 276.8C56.8001 251.9 41.0001 217.2 41.0001 178.9Z" fill="#F2F2F2"/>
<path d="M89.9 269.1L99.7 259.3C78.6999 238.9 65.6999 210.4 65.6999 178.9C65.6999 147.9 78.2999 119.9 98.4999 99.5998L88.6999 89.7998C65.8999 112.6 51.7999 144.1 51.7999 178.9C51.8999 214.2 66.4 246.2 89.9 269.1Z" fill="#F2F2F2"/>
</g>
<g opacity="0.07">
<path d="M359 2.14577e-05L359 360L-1.00001 -1.00145e-05L359 2.14577e-05Z" fill="#BDBDBD"/>
<path d="M71 8.58307e-06L-1 2.28863e-06L71 72L71 8.58307e-06Z" fill="#F2F2F2"/>
<path d="M71 72L143 72L143 144L71 72Z" fill="#F2F2F2"/>
<path d="M143 144L215 144L215 216L143 144Z" fill="#F2F2F2"/>
<path d="M215 216L287 216L287 288L215 216Z" fill="#F2F2F2"/>
<path d="M287 288L359 288L359 360L287 288Z" fill="#F2F2F2"/>
<path d="M287 216L359 288L359 216L287 216Z" fill="#F2F2F2"/>
<path d="M215 144L287 216L287 144L215 144Z" fill="#F2F2F2"/>
<path d="M143 72L215 144L215 72L143 72Z" fill="#F2F2F2"/>
<path d="M143 2.45142e-06L215 72L215 8.74586e-06L143 2.45142e-06Z" fill="#F2F2F2"/>
<path d="M287 144L359 216L359 144L287 144Z" fill="#F2F2F2"/>
<path d="M215 72L287 144L287 72L215 72Z" fill="#F2F2F2"/>
<path d="M215 2.45142e-06L287 72L287 8.74586e-06L215 2.45142e-06Z" fill="#F2F2F2"/>
<path d="M287 2.45142e-06L359 72L359 8.74586e-06L287 2.45142e-06Z" fill="#F2F2F2"/>
<path d="M287 72L359 144L359 72L287 72Z" fill="#F2F2F2"/>
<path d="M71 2.45142e-06L143 72L143 8.74586e-06L71 2.45142e-06Z" fill="#F2F2F2"/>
</g>
</svg>
