<svg width="40" height="50" viewBox="0 0 40 50" fill="none" xmlns="http://www.w3.org/2000/svg">
<rect y="6.09521" width="39.1111" height="39.1111" rx="3" fill="url(#paint0_linear)"/>
<path d="M24.7952 15C26.4952 15 28.1119 15.5167 29.6452 16.55C31.1785 17.55 32.4119 18.9167 33.3452 20.65C34.2785 22.35 34.7452 24.2167 34.7452 26.25C34.7452 28.25 34.2785 30.1167 33.3452 31.85C32.4119 33.5833 31.1785 34.9667 29.6452 36C28.1119 37 26.4952 37.5 24.7952 37.5H16.0952V46.95C16.0952 47.85 15.8285 48.5833 15.2952 49.15C14.7619 49.7167 14.0619 50 13.1952 50C12.3619 50 11.6785 49.7167 11.1452 49.15C10.6119 48.55 10.3452 47.8167 10.3452 46.95V18.05C10.3452 17.1833 10.6285 16.4667 11.1952 15.9C11.7952 15.3 12.5285 15 13.3952 15H24.7952ZM24.7952 31.8C25.4285 31.8 26.0452 31.5333 26.6452 31C27.2785 30.4667 27.7785 29.7833 28.1452 28.95C28.5452 28.0833 28.7452 27.1833 28.7452 26.25C28.7452 25.3167 28.5452 24.4333 28.1452 23.6C27.7785 22.7333 27.2785 22.05 26.6452 21.55C26.0452 21.0167 25.4285 20.75 24.7952 20.75H16.0952V31.8H24.7952Z" fill="#F8F9FA"/>
<defs>
<linearGradient id="paint0_linear" x1="-8.84656" y1="-2.51854" x2="46.328" y2="54.9841" gradientUnits="userSpaceOnUse">
<stop stop-color="#DE1D4D"/>
<stop offset="1" stop-color="#BA103A"/>
</linearGradient>
</defs>
</svg>
