<svg width="194" height="50" viewBox="0 0 194 50" fill="none" xmlns="http://www.w3.org/2000/svg">
<rect y="6.09521" width="39.1111" height="39.1111" rx="3" fill="#F8F9FA"/>
<path d="M24.7952 15C26.4952 15 28.1119 15.5167 29.6452 16.55C31.1785 17.55 32.4119 18.9167 33.3452 20.65C34.2785 22.35 34.7452 24.2167 34.7452 26.25C34.7452 28.25 34.2785 30.1167 33.3452 31.85C32.4119 33.5833 31.1785 34.9667 29.6452 36C28.1119 37 26.4952 37.5 24.7952 37.5H16.0952V46.95C16.0952 47.85 15.8285 48.5833 15.2952 49.15C14.7619 49.7167 14.0619 50 13.1952 50C12.3619 50 11.6785 49.7167 11.1452 49.15C10.6119 48.55 10.3452 47.8167 10.3452 46.95V18.05C10.3452 17.1833 10.6285 16.4667 11.1952 15.9C11.7952 15.3 12.5285 15 13.3952 15H24.7952ZM24.7952 31.8C25.4285 31.8 26.0452 31.5333 26.6452 31C27.2785 30.4667 27.7785 29.7833 28.1452 28.95C28.5452 28.0833 28.7452 27.1833 28.7452 26.25C28.7452 25.3167 28.5452 24.4333 28.1452 23.6C27.7785 22.7333 27.2785 22.05 26.6452 21.55C26.0452 21.0167 25.4285 20.75 24.7952 20.75H16.0952V31.8H24.7952Z" fill="#DE1D4D"/>
<path d="M61.7872 19.4C62.7392 19.4 63.6445 19.6893 64.5032 20.268C65.3619 20.828 66.0525 21.5933 66.5752 22.564C67.0979 23.516 67.3592 24.5613 67.3592 25.7C67.3592 26.82 67.0979 27.8653 66.5752 28.836C66.0525 29.8067 65.3619 30.5813 64.5032 31.16C63.6445 31.72 62.7392 32 61.7872 32H56.9152V37.292C56.9152 37.796 56.7659 38.2067 56.4672 38.524C56.1685 38.8413 55.7765 39 55.2912 39C54.8245 39 54.4419 38.8413 54.1432 38.524C53.8445 38.188 53.6952 37.7773 53.6952 37.292V21.108C53.6952 20.6227 53.8539 20.2213 54.1712 19.904C54.5072 19.568 54.9179 19.4 55.4032 19.4H61.7872ZM61.7872 28.808C62.1419 28.808 62.4872 28.6587 62.8232 28.36C63.1779 28.0613 63.4579 27.6787 63.6632 27.212C63.8872 26.7267 63.9992 26.2227 63.9992 25.7C63.9992 25.1773 63.8872 24.6827 63.6632 24.216C63.4579 23.7307 63.1779 23.348 62.8232 23.068C62.4872 22.7693 62.1419 22.62 61.7872 22.62H56.9152V28.808H61.7872ZM82.2736 23.74C82.7589 23.74 83.1603 23.8987 83.4776 24.216C83.7949 24.5333 83.9536 24.944 83.9536 25.448V37.292C83.9536 37.7773 83.7949 38.188 83.4776 38.524C83.1603 38.8413 82.7589 39 82.2736 39C81.7883 39 81.3869 38.8413 81.0696 38.524C80.7709 38.2067 80.6123 37.8053 80.5936 37.32C80.1269 37.8613 79.4923 38.328 78.6896 38.72C77.9056 39.0933 77.0749 39.28 76.1976 39.28C74.9096 39.28 73.7429 38.9533 72.6976 38.3C71.6523 37.628 70.8216 36.704 70.2056 35.528C69.6083 34.352 69.3096 33.0173 69.3096 31.524C69.3096 30.0307 69.6083 28.696 70.2056 27.52C70.8029 26.3253 71.6149 25.4013 72.6416 24.748C73.6869 24.076 74.8349 23.74 76.0856 23.74C76.9816 23.74 77.8216 23.908 78.6056 24.244C79.3896 24.5613 80.0523 24.972 80.5936 25.476V25.448C80.5936 24.9627 80.7523 24.5613 81.0696 24.244C81.3869 23.908 81.7883 23.74 82.2736 23.74ZM76.6176 36.2C77.8309 36.2 78.8203 35.7613 79.5856 34.884C80.3509 33.988 80.7336 32.868 80.7336 31.524C80.7336 30.18 80.3509 29.06 79.5856 28.164C78.8203 27.268 77.8309 26.82 76.6176 26.82C75.4229 26.82 74.4429 27.268 73.6776 28.164C72.9123 29.06 72.5296 30.18 72.5296 31.524C72.5296 32.868 72.9029 33.988 73.6496 34.884C74.4149 35.7613 75.4043 36.2 76.6176 36.2ZM98.3828 24.02C98.8681 24.02 99.2694 24.188 99.5868 24.524C99.9041 24.8413 100.063 25.2427 100.063 25.728V37.628C100.063 40.0547 99.4094 41.8187 98.1028 42.92C96.7961 44.04 95.0508 44.6 92.8668 44.6C92.2321 44.6 91.5788 44.544 90.9068 44.432C90.2534 44.3387 89.7214 44.208 89.3108 44.04C88.3961 43.648 87.9388 43.1067 87.9388 42.416C87.9388 42.2853 87.9668 42.136 88.0228 41.968C88.1348 41.5573 88.3214 41.24 88.5828 41.016C88.8628 40.8107 89.1614 40.708 89.4788 40.708C89.6654 40.708 89.8428 40.736 90.0108 40.792C90.1414 40.848 90.3654 40.9413 90.6828 41.072C91.0188 41.2027 91.3641 41.3053 91.7188 41.38C92.0921 41.4733 92.4748 41.52 92.8668 41.52C94.1921 41.52 95.1628 41.2307 95.7788 40.652C96.4134 40.092 96.7308 39.1213 96.7308 37.74V37.46C95.7601 38.6733 94.2481 39.28 92.1948 39.28C91.2241 39.28 90.3654 39.056 89.6188 38.608C88.8721 38.1413 88.2934 37.5067 87.8828 36.704C87.4721 35.8827 87.2668 34.9493 87.2668 33.904V25.728C87.2668 25.2427 87.4254 24.8413 87.7428 24.524C88.0601 24.188 88.4614 24.02 88.9468 24.02C89.4321 24.02 89.8334 24.188 90.1508 24.524C90.4681 24.8413 90.6268 25.2427 90.6268 25.728V32.896C90.6268 34.072 90.8788 34.9213 91.3828 35.444C91.9054 35.948 92.6614 36.2 93.6508 36.2C94.6214 36.2 95.3681 35.92 95.8908 35.36C96.4321 34.7813 96.7028 33.96 96.7028 32.896V25.728C96.7028 25.2427 96.8614 24.8413 97.1788 24.524C97.4961 24.188 97.8974 24.02 98.3828 24.02ZM117.956 31.524C117.956 33.0173 117.62 34.3613 116.948 35.556C116.276 36.732 115.352 37.6467 114.176 38.3C113.018 38.9533 111.74 39.28 110.34 39.28C108.921 39.28 107.633 38.9533 106.476 38.3C105.318 37.6467 104.404 36.732 103.732 35.556C103.06 34.3613 102.724 33.0173 102.724 31.524C102.724 30.0307 103.06 28.696 103.732 27.52C104.404 26.3253 105.318 25.4013 106.476 24.748C107.633 24.076 108.921 23.74 110.34 23.74C111.74 23.74 113.018 24.076 114.176 24.748C115.352 25.4013 116.276 26.3253 116.948 27.52C117.62 28.696 117.956 30.0307 117.956 31.524ZM114.596 31.524C114.596 30.6093 114.4 29.7973 114.008 29.088C113.634 28.36 113.121 27.8 112.468 27.408C111.833 27.016 111.124 26.82 110.34 26.82C109.556 26.82 108.837 27.016 108.184 27.408C107.549 27.8 107.036 28.36 106.644 29.088C106.27 29.7973 106.084 30.6093 106.084 31.524C106.084 32.4387 106.27 33.2507 106.644 33.96C107.036 34.6693 107.549 35.22 108.184 35.612C108.837 36.004 109.556 36.2 110.34 36.2C111.124 36.2 111.833 36.004 112.468 35.612C113.121 35.22 113.634 34.6693 114.008 33.96C114.4 33.2507 114.596 32.4387 114.596 31.524ZM128.771 23.74C130.675 23.74 131.991 24.3093 132.719 25.448C133.447 26.568 133.811 28.1267 133.811 30.124V37.292C133.811 37.7773 133.652 38.188 133.335 38.524C133.018 38.8413 132.616 39 132.131 39C131.646 39 131.244 38.8413 130.927 38.524C130.61 38.188 130.451 37.7773 130.451 37.292V30.124C130.451 29.0973 130.236 28.2947 129.807 27.716C129.378 27.1187 128.64 26.82 127.595 26.82C126.512 26.82 125.663 27.1373 125.047 27.772C124.431 28.388 124.123 29.172 124.123 30.124V37.292C124.123 37.7773 123.964 38.188 123.647 38.524C123.33 38.8413 122.928 39 122.443 39C121.958 39 121.556 38.8413 121.239 38.524C120.922 38.188 120.763 37.7773 120.763 37.292V25.728C120.763 25.2427 120.922 24.8413 121.239 24.524C121.556 24.188 121.958 24.02 122.443 24.02C122.928 24.02 123.33 24.188 123.647 24.524C123.964 24.8413 124.123 25.2427 124.123 25.728V26.204C124.627 25.532 125.28 24.9533 126.083 24.468C126.904 23.9827 127.8 23.74 128.771 23.74Z" fill="#F8F9FA"/>
</svg>
