<svg xmlns="http://www.w3.org/2000/svg" viewBox="0 0 399.15 354.48"><defs><style>.cls-1{fill:#e0e0e0;}.cls-2{fill:#f5f5f5;}.cls-3{opacity:0.8;}.cls-4{fill:#ebebeb;}.cls-10,.cls-11,.cls-4{fill-rule:evenodd;}.cls-5{fill:#263238;}.cls-11,.cls-6{fill:#fff;}.cls-10,.cls-7{fill:#fcc220;}.cls-8{opacity:0.3;}.cls-9{fill:#fafafa;}.cls-12{opacity:0.4;}.cls-13{fill:#ffbe9d;}.cls-14{fill:#eb996e;}.cls-15{fill:#455a64;}.cls-16{opacity:0.2;}</style></defs><title>Asset 1</title><g id="Layer_2" data-name="Layer 2"><g id="Character"><path class="cls-1" d="M350.84,78.9a4.15,4.15,0,0,1,1.3.41,5.47,5.47,0,0,1,2.59,2.62,5.54,5.54,0,0,1,.53,2.53,5.62,5.62,0,0,1-.87,2.84,5.63,5.63,0,0,1-2.49,2.14A5.61,5.61,0,0,1,345.39,88a5.63,5.63,0,0,1-1.34-3,5.62,5.62,0,0,1,.42-2.94A5.54,5.54,0,0,1,346,80a5.47,5.47,0,0,1,3.46-1.26,4.15,4.15,0,0,1,1.35.19s-.48-.1-1.34-.06a5.48,5.48,0,0,0-3.32,1.31,5.37,5.37,0,0,0-1.84,4.79,5.37,5.37,0,0,0,1.28,2.83,5.32,5.32,0,0,0,6.16,1.38,5.37,5.37,0,0,0,2.36-2,5.37,5.37,0,0,0,.38-5.12,5.48,5.48,0,0,0-2.44-2.6C351.32,79,350.83,78.94,350.84,78.9Z"/><path class="cls-1" d="M355.25,73a1.19,1.19,0,0,1,0-.19v-.59l0-2.32,0,0-5-1.09.09,0L349,71.64l0,.05h-.06a12.53,12.53,0,0,0-3.26.58l-.06,0,0,0-2.2-2.18.14,0-4.32,2.75.05-.15,1,2.91,0,.07-.05.06a12.46,12.46,0,0,0-1.9,2.7l0,.07h-3.18l.14-.11-1.11,5-.08-.16,2.8,1.32.08,0v.09a12.49,12.49,0,0,0,.57,3.25l0,.09-.07.07-2.18,2.2,0-.19,2.74,4.33-.18-.06,2.92-1,.09,0,.07.06a12.42,12.42,0,0,0,2.69,1.9h0l.09.14h0V98.5l-.12-.15,5,1.12-.18.09,1.33-2.79,0-.08h.09a12.41,12.41,0,0,0,3.25-.56l.09,0,.07.07,2.19,2.19-.19,0,4.33-2.74-.06.17-1-2.92,0-.08.06-.06a12.43,12.43,0,0,0,1.91-2.7l0-.07h3.18l-.13.1,1.13-5,.07.14L362,83.82l-.06,0v-.07a12.5,12.5,0,0,0-.56-3.26l0-.06,0,0,2.19-2.19v.12l-2.72-4.34.08,0L358,75h0l0,0a13,13,0,0,0-2-1.53l-.53-.32-.18-.11.19.09c.12.06.31.16.55.3a12.14,12.14,0,0,1,2,1.5H358l2.91-1.06.05,0,0,0,2.76,4.31,0,.06-.05.05-2.18,2.2,0-.1a12.66,12.66,0,0,1,.59,3.32l-.06-.1,2.8,1.32.09,0,0,.09-1.11,5,0,.1h-3.2l.12-.07a12.68,12.68,0,0,1-1.94,2.76l0-.14,1,2.92,0,.11-.1.06-4.32,2.75-.1.06-.09-.08-2.2-2.18.15,0a12.69,12.69,0,0,1-3.33.58l.13-.09-1.33,2.8-.05.11-.12,0-5-1.12-.12,0v-3.2h0l.08.14h0a12.72,12.72,0,0,1-2.76-1.95l.16,0-2.92,1-.12,0-.07-.11-2.74-4.33-.07-.1.09-.09,2.19-2.19,0,.15a12.78,12.78,0,0,1-.58-3.33l.09.13-2.79-1.33-.11-.05,0-.11,1.13-5,0-.11h3.21l-.12.07a12.69,12.69,0,0,1,1.95-2.76l0,.13-1-2.92,0-.09.08-.05,4.33-2.73.08,0,.06.06,2.19,2.19-.1,0a12.66,12.66,0,0,1,3.32-.57l-.08.05,1.34-2.79,0-.06h.06l5,1.15h0v0l0,2.3v.59A1.52,1.52,0,0,1,355.25,73Z"/><path class="cls-1" d="M385.55,322.81s0-.33,0-.94l0-2.74,0-10.46c0-9,0-22.09-.08-38.11l.14.14-90.3,0h0l.18-.18c0,18.49,0,36.16,0,52.25l-.17-.17,64.95.08,18.65,0,5,0h0l-4.94,0-18.61,0-65.06.08h-.17v-.17c0-16.09,0-33.76,0-52.25v-.18h.19l90.3,0h.14v.14c0,16.05-.06,29.12-.08,38.2,0,4.51,0,8,0,10.43l0,2.71C385.56,322.51,385.55,322.81,385.55,322.81Z"/><path class="cls-1" d="M385.58,276.89c0,.1-20.2.18-45.11.18s-45.11-.08-45.11-.18,20.19-.18,45.11-.18S385.58,276.79,385.58,276.89Z"/><rect class="cls-2" x="303.07" y="285.51" width="27.89" height="27.89"/><path class="cls-1" d="M379,290.11a1.72,1.72,0,0,1-.41,0l-1.18,0-4.33.06-14.27.05-14.28-.05-4.33-.06-1.18,0a1.72,1.72,0,0,1-.41,0,1.73,1.73,0,0,1,.41,0l1.18,0,4.33-.06,14.28-.05,14.27.05,4.33.06,1.18,0A1.73,1.73,0,0,1,379,290.11Z"/><path class="cls-1" d="M379.9,296.34a1.8,1.8,0,0,1-.42,0l-1.2,0-4.42.06-14.59.05-14.59-.05-4.42-.06-1.2,0a1.8,1.8,0,0,1-.42,0,1.82,1.82,0,0,1,.42,0l1.2,0,4.42-.06,14.59-.05,14.59.05,4.42.06,1.2,0A1.81,1.81,0,0,1,379.9,296.34Z"/><path class="cls-1" d="M379.9,302.57a1.8,1.8,0,0,1-.42,0l-1.2,0-4.42.06-14.59.05-14.59-.05-4.42-.06-1.2,0a1.8,1.8,0,0,1-.42,0,1.81,1.81,0,0,1,.42,0l1.2,0,4.42-.06,14.59-.05,14.59.05,4.42.06,1.2,0A1.81,1.81,0,0,1,379.9,302.57Z"/><path class="cls-1" d="M379.9,308.8a1.81,1.81,0,0,1-.42,0l-1.2,0-4.42.06-14.59.05-14.59-.05-4.42-.06-1.2,0a1.81,1.81,0,0,1-.42,0,1.8,1.8,0,0,1,.42,0l1.2,0,4.42-.06,14.59-.05,14.59.05,4.42.06,1.2,0A1.8,1.8,0,0,1,379.9,308.8Z"/><circle class="cls-2" cx="124.42" cy="37.53" r="37.53" transform="translate(78.82 159.23) rotate(-86.24)"/><path class="cls-1" d="M141.46,38.69a7.51,7.51,0,0,1-1.33.09l-3.65.07c-3.1,0-7.41.07-12.28.08H124v-.24c0-.78,0-1.6,0-2.43,0-5.44,0-10.36.07-13.92l.08-4.22a9.44,9.44,0,0,1,.09-1.55,9.46,9.46,0,0,1,.09,1.55l.08,4.22c0,3.56.07,8.48.07,13.92,0,.83,0,1.65,0,2.43l-.24-.24c4.87,0,9.18,0,12.28.08l3.65.07A7.51,7.51,0,0,1,141.46,38.69Z"/><ellipse class="cls-1" cx="124.33" cy="9.32" rx="0.24" ry="3.15"/><ellipse class="cls-1" cx="139.23" cy="13.43" rx="3.11" ry="0.24" transform="translate(31.29 102.39) rotate(-45)"/><path class="cls-1" d="M151.43,22.15a13.07,13.07,0,0,1-2.59,1.73,13.07,13.07,0,0,1-2.72,1.5,8.33,8.33,0,0,1,2.47-1.92A8.33,8.33,0,0,1,151.43,22.15Z"/><ellipse class="cls-1" cx="152.99" cy="38.36" rx="4.3" ry="0.24"/><ellipse class="cls-1" cx="93.62" cy="37.79" rx="4.06" ry="0.24"/><ellipse class="cls-1" cx="98.67" cy="52.45" rx="4.13" ry="0.24" transform="translate(-11.07 73.5) rotate(-38.85)"/><path class="cls-1" d="M112.29,59.19a27.57,27.57,0,0,1-2.09,3.62A27.58,27.58,0,0,1,108,66.35a13.63,13.63,0,0,1,1.8-3.79A13.63,13.63,0,0,1,112.29,59.19Z"/><ellipse class="cls-1" cx="124.33" cy="66.92" rx="0.24" ry="4.3"/><path class="cls-1" d="M142.86,65.49a12.6,12.6,0,0,1-3.54-2.43,12.6,12.6,0,0,1-2.89-3.18,39.53,39.53,0,0,1,3.21,2.81A39.51,39.51,0,0,1,142.86,65.49Z"/><ellipse class="cls-1" cx="148.88" cy="53.45" rx="0.24" ry="3.78" transform="translate(5.81 120.93) rotate(-45)"/><ellipse class="cls-1" cx="99.16" cy="23.89" rx="0.24" ry="3.31" transform="translate(12.15 77.11) rotate(-45)"/><ellipse class="cls-1" cx="109.93" cy="12.63" rx="0.24" ry="3.24" transform="translate(23.42 81.63) rotate(-45.13)"/><g class="cls-3"><path class="cls-4" d="M328.56,18.31a24.86,24.86,0,0,1,5.4,3.8l5.77-2.05,5.42,8.56L340.83,33A24.83,24.83,0,0,1,342,39.46l5.53,2.63L345.27,52h-6.12a24.78,24.78,0,0,1-3.8,5.4l2.05,5.77-8.56,5.42-4.34-4.32A24.83,24.83,0,0,1,318,65.39l-2.63,5.53-9.89-2.22V62.58a24.78,24.78,0,0,1-5.4-3.8l-5.77,2.05-5.42-8.56,4.32-4.34a24.88,24.88,0,0,1-1.13-6.51l-5.53-2.63,2.22-9.89h6.12a24.77,24.77,0,0,1,3.8-5.4l-2.05-5.77,8.56-5.42,4.34,4.32A24.83,24.83,0,0,1,316,15.5L318.66,10l9.89,2.22v6.12Zm-8.72,11.63a10.87,10.87,0,1,0,8.23,13A10.87,10.87,0,0,0,319.84,29.94Z"/></g><path class="cls-2" d="M38,105.27h64.15S96.5,94.95,80,96.45c-15.77,1.43-16.57-5.08-24.59-5.88S40.69,95.92,38,105.27Z"/><path class="cls-2" d="M176.85,221.9h51.92s-4.59-8.36-18-7.14c-12.76,1.16-13.41-4.11-19.9-4.76S179,214.33,176.85,221.9Z"/><path class="cls-5" d="M399.15,350c0,.12-89.36.23-199.57.23S0,350.15,0,350s89.34-.23,199.59-.23S399.15,349.9,399.15,350Z"/><rect class="cls-6" x="251.53" y="90.13" width="125.99" height="84.35"/><path class="cls-7" d="M377.51,174.49s0-.53,0-1.53l0-4.45,0-17-.09-61.4.18.18-126,0h0l.23-.23c0,30.05,0,58.63,0,84.35l-.21-.21,90.76.1,25.93.06,6.9,0h0l-6.86,0-25.88.06-90.9.1h-.21v-.21c0-25.73,0-54.3,0-84.35v-.23h.24l126,0h.18v.18c0,25.73-.07,46.83-.09,61.52l0,16.92,0,4.42C377.53,174,377.51,174.49,377.51,174.49Z"/><path class="cls-7" d="M251.53,97.66c0-.12,28.18-.23,62.94-.23s62.94.1,62.94.23-28.18.23-62.94.23S251.53,97.79,251.53,97.66Z"/><g class="cls-8"><circle class="cls-7" cx="255.49" cy="93.86" r="1.01"/></g><g class="cls-8"><circle class="cls-7" cx="258.95" cy="93.86" r="1.01"/></g><g class="cls-8"><circle class="cls-7" cx="262.36" cy="93.86" r="1.01"/></g><g class="cls-8"><rect class="cls-7" x="262.36" y="106.46" width="33.61" height="33.61"/></g><ellipse class="cls-7" cx="330.96" cy="115.96" rx="29.27" ry="0.23"/><ellipse class="cls-7" cx="330.96" cy="122.2" rx="29.27" ry="0.23"/><ellipse class="cls-7" cx="330.96" cy="128.45" rx="29.27" ry="0.23"/><path class="cls-7" d="M336.29,134.69a7.85,7.85,0,0,1-1.36.09l-3.71.07c-3.13,0-7.46.07-12.23.07s-9.1,0-12.23-.07l-3.71-.07a7.85,7.85,0,0,1-1.36-.09,7.88,7.88,0,0,1,1.36-.09l3.71-.07c3.13,0,7.46-.07,12.23-.07s9.1,0,12.23.07l3.71.07A7.88,7.88,0,0,1,336.29,134.69Z"/><g class="cls-8"><rect class="cls-7" x="264.46" y="151.4" width="15.79" height="15.79"/></g><g class="cls-8"><rect class="cls-7" x="293.1" y="151.4" width="15.79" height="15.79"/></g><g class="cls-8"><rect class="cls-7" x="321.75" y="151.4" width="15.79" height="15.79"/></g><g class="cls-8"><rect class="cls-7" x="350.39" y="151.4" width="15.79" height="15.79"/></g><rect class="cls-6" x="21.12" y="120.52" width="112.23" height="45.59"/><path class="cls-7" d="M133.35,166.11s0-.28,0-.81v-2.37l0-9.07-.07-33.34.12.12-112.22.05h0l.18-.18c0,16,0,31.37,0,45.59l-.17-.17,80.47.08,23.34,0,6.25,0h0l-6.21,0-23.3,0-80.58.08H21v-.17c0-14.21,0-29.62,0-45.59v-.18h.19l112.22.05h.13v.12l-.07,33.41c0,3.92,0,7,0,9v2.34C133.36,165.85,133.35,166.11,133.35,166.11Z"/><path class="cls-7" d="M21.23,126.67c0-.1,25.09-.18,56-.18s56,.08,56,.18-25.08.18-56,.18S21.23,126.77,21.23,126.67Z"/><g class="cls-8"><circle class="cls-7" cx="25.12" cy="123.92" r="0.81"/></g><g class="cls-8"><circle class="cls-7" cx="27.91" cy="123.92" r="0.81"/></g><g class="cls-8"><circle class="cls-7" cx="30.66" cy="123.92" r="0.81"/></g><g class="cls-8"><rect class="cls-7" x="30.66" y="134.08" width="27.11" height="27.11"/></g><ellipse class="cls-7" cx="94.43" cy="141.34" rx="31.15" ry="0.18"/><ellipse class="cls-7" cx="94.43" cy="146.87" rx="31.15" ry="0.18"/><path class="cls-7" d="M103.39,152.39a1.78,1.78,0,0,1-.41,0l-1.17,0-4.3.06-14.18.05-14.18-.05-4.3-.06-1.17,0a1.78,1.78,0,0,1-.41,0,1.77,1.77,0,0,1,.41,0l1.17,0,4.3-.06,14.18-.05,14.18.05,4.3.06,1.17,0A1.77,1.77,0,0,1,103.39,152.39Z"/><path class="cls-2" d="M215.82,63.24c-1.88-1.25-4.46-.5-6.35.76s-3.49,3-5.6,3.79c-4,1.54-9.15-.28-12.22,2.64-2,1.86-2.15,4.91-3.64,7.15-2.51,3.78-8.54,5.2-9.06,9.71-.3,2.63,1.78,5.15,4.32,5.89a9.28,9.28,0,0,0,7.55-1.51c2.58-1.71,4.6-4.35,7.53-5.33s6.7-.16,9.07-2.26,2-5.95,3.71-8.62a17.33,17.33,0,0,1,3.6-3.52,7,7,0,0,0,2.7-4.14c.21-1.67-.47-4.52-1.62-4.59"/><ellipse class="cls-5" cx="167.55" cy="248.38" rx="0.23" ry="1.09" transform="translate(-108.93 132.96) rotate(-33.34)"/><ellipse class="cls-5" cx="164.06" cy="241.65" rx="0.23" ry="2.17" transform="translate(-79.45 80.37) rotate(-22.31)"/><ellipse class="cls-5" cx="161.62" cy="233.35" rx="0.23" ry="2.17" transform="translate(-39.86 33.4) rotate(-10.51)"/><ellipse class="cls-5" cx="160.89" cy="224.72" rx="2.17" ry="0.23" transform="translate(-66.05 382.47) rotate(-89.2)"/><ellipse class="cls-5" cx="161.87" cy="216.12" rx="2.17" ry="0.23" transform="translate(-83.53 328.77) rotate(-77.83)"/><ellipse class="cls-5" cx="164.56" cy="207.9" rx="2.17" ry="0.23" transform="translate(-92.47 273.02) rotate(-65.85)"/><path class="cls-5" d="M170.22,198.69a5.45,5.45,0,0,1-1.11,1.88,5.89,5.89,0,0,1-1.47,1.61c-.12-.08.39-.91,1.1-1.88S170.13,198.61,170.22,198.69Z"/><ellipse class="cls-5" cx="174.56" cy="193.84" rx="2.17" ry="0.23" transform="translate(-86.19 186.54) rotate(-46.39)"/><ellipse class="cls-5" cx="180.64" cy="187.65" rx="2.17" ry="0.23" transform="translate(-79.81 184.58) rotate(-45.42)"/><ellipse class="cls-5" cx="186.48" cy="181.24" rx="2.17" ry="0.23" transform="translate(-71.92 210.45) rotate(-50.63)"/><path class="cls-5" d="M192.28,172.12a4.66,4.66,0,0,1-.73,2.06c-.55,1.07-1.16,1.85-1.26,1.79a6.36,6.36,0,0,1,.86-2A6.47,6.47,0,0,1,192.28,172.12Z"/><path class="cls-5" d="M194.39,163.74a7.65,7.65,0,0,1-.71,4.28,17.07,17.07,0,0,1,.71-4.28Z"/><path class="cls-5" d="M193.75,155.12a7.66,7.66,0,0,1,.67,4.28,17,17,0,0,1-.67-4.28Z"/><path class="cls-5" d="M190.34,147.19c.1-.07.74.69,1.31,1.75a4.49,4.49,0,0,1,.74,2.06,6.79,6.79,0,0,1-1.14-1.85A6.86,6.86,0,0,1,190.34,147.19Z"/><path class="cls-5" d="M184.29,141a4.45,4.45,0,0,1,1.87,1.14c.93.78,1.54,1.56,1.45,1.64s-.83-.54-1.74-1.3S184.22,141.14,184.29,141Z"/><path class="cls-5" d="M176.41,137.51a7.4,7.4,0,0,1,4.1,1.4,18.53,18.53,0,0,1-4.1-1.4Z"/><path class="cls-5" d="M167.79,137.12a7.14,7.14,0,0,1,4.33-.23,7.06,7.06,0,0,1-2.16.23A7.15,7.15,0,0,1,167.79,137.12Z"/><path class="cls-5" d="M159.79,140.31c-.07-.1.67-.75,1.74-1.33a4.3,4.3,0,0,1,2.07-.72,7.36,7.36,0,0,1-1.86,1.12A7.25,7.25,0,0,1,159.79,140.31Z"/><path class="cls-5" d="M153.84,146.55a4.39,4.39,0,0,1,1.06-1.92c.74-1,1.51-1.59,1.59-1.51s-.51.85-1.24,1.78S153.95,146.61,153.84,146.55Z"/><path class="cls-5" d="M150.92,154.65a4.27,4.27,0,0,1,.17-2.19,4.32,4.32,0,0,1,.85-2,7.3,7.3,0,0,1-.41,2.13A7.44,7.44,0,0,1,150.92,154.65Z"/><path class="cls-5" d="M151.95,163.19a4.34,4.34,0,0,1-.85-2,4.29,4.29,0,0,1-.17-2.19,7.37,7.37,0,0,1,.61,2.08A7.23,7.23,0,0,1,151.95,163.19Z"/><path class="cls-5" d="M156.35,170.62c-.09.08-.81-.6-1.52-1.58a4.54,4.54,0,0,1-1-1.94c.11-.06.68.72,1.38,1.68A6.57,6.57,0,0,1,156.35,170.62Z"/><path class="cls-5" d="M162.73,176.46a4.8,4.8,0,0,1-1.87-1.14c-.94-.76-1.59-1.5-1.51-1.59s.86.49,1.79,1.24S162.8,176.36,162.73,176.46Z"/><ellipse class="cls-5" cx="168.31" cy="179.79" rx="0.23" ry="2.17" transform="translate(-68.24 248.33) rotate(-63.05)"/><path class="cls-5" d="M178.5,183.4a8.22,8.22,0,0,1-4.2-1.08,14.74,14.74,0,0,1,4.2,1.08Z"/><path class="cls-5" d="M187.14,183.84a7.79,7.79,0,0,1-4.33.09,6.52,6.52,0,0,1,2.16-.19A6.59,6.59,0,0,1,187.14,183.84Z"/><path class="cls-5" d="M195.48,181.61a7.6,7.6,0,0,1-4.08,1.47,17.34,17.34,0,0,1,4.08-1.47Z"/><path class="cls-5" d="M202.72,176.88c.08.09-.58.82-1.54,1.56a4.63,4.63,0,0,1-1.91,1.08c-.07-.11.69-.71,1.63-1.44S202.63,176.78,202.72,176.88Z"/><path class="cls-5" d="M208.36,170.31a4.71,4.71,0,0,1-1.07,1.91c-.72,1-1.45,1.64-1.54,1.56a6.39,6.39,0,0,1,1.18-1.83C207.65,171,208.26,170.25,208.36,170.31Z"/><path class="cls-5" d="M212.12,162.52a8.05,8.05,0,0,1-1.62,4,15.35,15.35,0,0,1,1.62-4Z"/><path class="cls-5" d="M213.8,154a8.32,8.32,0,0,1-.59,4.3,14.43,14.43,0,0,1,.59-4.3Z"/><ellipse class="cls-5" cx="213.74" cy="147.52" rx="0.23" ry="2.17" transform="translate(-10.75 16.94) rotate(-4.43)"/><ellipse class="cls-5" cx="212.26" cy="138.99" rx="0.23" ry="2.17" transform="translate(-28.94 60.27) rotate(-15.14)"/><path class="cls-5" d="M208.37,128.88a5.32,5.32,0,0,1,1.15,1.86,5.4,5.4,0,0,1,.67,2.08,5.41,5.41,0,0,1-1.08-1.89A5.51,5.51,0,0,1,208.37,128.88Z"/><ellipse class="cls-5" cx="205.2" cy="123.2" rx="0.23" ry="2.17" transform="translate(-34.13 120.73) rotate(-30.39)"/><ellipse class="cls-5" cx="200.85" cy="115.69" rx="0.23" ry="2.17" transform="translate(-30.9 111.71) rotate(-28.96)"/><ellipse class="cls-5" cx="197.17" cy="107.85" rx="0.23" ry="2.17" transform="translate(-25.24 75.59) rotate(-20.42)"/><path class="cls-5" d="M194.94,97.29a6.34,6.34,0,0,1,.38,2.14,6.36,6.36,0,0,1,.07,2.17,8.1,8.1,0,0,1-.46-4.31Z"/><path class="cls-5" d="M195.65,88.66a6.32,6.32,0,0,1-.16,2.17A6.32,6.32,0,0,1,195,93a4.74,4.74,0,0,1,0-2.19A4.74,4.74,0,0,1,195.65,88.66Z"/><path class="cls-5" d="M198.48,80.48a6.36,6.36,0,0,1-.69,2.06,6.34,6.34,0,0,1-1,1.94,4.72,4.72,0,0,1,.56-2.11A4.71,4.71,0,0,1,198.48,80.48Z"/><path class="cls-5" d="M203.31,73.3c.09.08-.48.87-1.21,1.81s-1.34,1.69-1.45,1.62a4.7,4.7,0,0,1,1.09-1.9C202.49,73.88,203.22,73.22,203.31,73.3Z"/><path class="cls-5" d="M209.82,67.59c.07.11-.68.72-1.62,1.45a6.33,6.33,0,0,1-1.81,1.2c-.08-.09.58-.82,1.54-1.56A4.74,4.74,0,0,1,209.82,67.59Z"/><path class="cls-5" d="M217.54,63.67a15,15,0,0,1-4,1.72,8.14,8.14,0,0,1,4-1.72Z"/><ellipse class="cls-5" cx="222.76" cy="62.27" rx="1.08" ry="0.23" transform="translate(-7.6 41.4) rotate(-10.44)"/><path class="cls-7" d="M241.53,36.54A28.34,28.34,0,0,1,265.81,34S267,45.64,255.66,54.92"/><path class="cls-7" d="M209.42,58.1c.43.65,11.49,18.42,11.49,18.42L254.1,56.08a11.62,11.62,0,0,0,3.24-16.8h0a11.62,11.62,0,0,0-15.81-2.73Z"/><path class="cls-5" d="M220.91,76.53,220.16,89s21.51-10.42,16.14-22Z"/><path class="cls-5" d="M224.79,47.78s-14.58-6.43-26.59,3l11.22,7.32Z"/><path class="cls-5" d="M224.69,58.11l-20.76,13s.71,2.23,1.27,2,16.06-9.37,21.12-12.36a1.56,1.56,0,0,0,.41-2.34h0A1.57,1.57,0,0,0,224.69,58.11Z"/><circle class="cls-9" cx="243.81" cy="48.27" r="6.65"/><path class="cls-5" d="M250.45,48.27c-.05,0,0-.59-.29-1.6a6.63,6.63,0,0,0-2.43-3.55,6.47,6.47,0,0,0-6.12-.89,6.37,6.37,0,0,0-3,2.25,6.41,6.41,0,0,0,0,7.59,6.37,6.37,0,0,0,3,2.25,6.47,6.47,0,0,0,6.12-.89,6.63,6.63,0,0,0,2.43-3.55c.27-1,.24-1.6.29-1.6a1.51,1.51,0,0,1,0,.43,5.26,5.26,0,0,1-.15,1.22,6.62,6.62,0,0,1-2.41,3.77,6.72,6.72,0,0,1-2.86,1.3,6.83,6.83,0,0,1-3.6-.27,6.75,6.75,0,0,1-3.2-2.38,6.81,6.81,0,0,1,0-8.12,6.75,6.75,0,0,1,3.2-2.38,6.83,6.83,0,0,1,3.6-.27,6.72,6.72,0,0,1,2.86,1.3,6.62,6.62,0,0,1,2.41,3.77,5.25,5.25,0,0,1,.15,1.22A1.51,1.51,0,0,1,250.45,48.27Z"/><path class="cls-5" d="M258.54,52.7c-.09,0-.19-1.29-.7-3.31a25.28,25.28,0,0,0-1.16-3.46,25,25,0,0,0-4.82-7.47A25.28,25.28,0,0,0,249.19,36c-1.63-1.3-2.77-1.92-2.73-2a3.55,3.55,0,0,1,.83.39,9,9,0,0,1,.92.55c.35.23.76.48,1.17.8a22.29,22.29,0,0,1,2.79,2.44,23.42,23.42,0,0,1,4.91,7.6,22.29,22.29,0,0,1,1.08,3.55c.13.51.18,1,.25,1.4a9,9,0,0,1,.12,1.07A3.56,3.56,0,0,1,258.54,52.7Z"/><path class="cls-5" d="M256.75,53.66c-.09,0-.19-1.31-.71-3.37a26,26,0,0,0-1.17-3.52A25.69,25.69,0,0,0,250,39.16a26,26,0,0,0-2.71-2.54c-1.65-1.33-2.81-2-2.76-2a3.67,3.67,0,0,1,.84.41,9.28,9.28,0,0,1,.94.56c.35.24.77.49,1.19.83a22.92,22.92,0,0,1,2.82,2.5,24,24,0,0,1,5,7.74,22.92,22.92,0,0,1,1.1,3.61c.13.52.19,1,.26,1.42a9.3,9.3,0,0,1,.12,1.08A3.67,3.67,0,0,1,256.75,53.66Z"/><path class="cls-7" d="M53.75,329.34c-.74-2.95,1.2-5.89,3.38-8s4.77-4,5.92-6.84c1.85-4.57-.57-10.5,2.57-14.3,1.84-2.24,5.13-3,6.77-5.36a12.28,12.28,0,0,0,1.49-4.28,43.55,43.55,0,0,1,10.95-20.21,37.79,37.79,0,0,1-4.36,19.51c-1.27,2.39-2.84,4.72-3.27,7.4-.7,4.35,1.7,8.84.61,13.11-1.25,4.88-6.76,8.12-7,13.14-.24,4.25,3.44,8,3.14,12.25a11.47,11.47,0,0,1-1.92,5c-3.32,5.45-8.17,9.18-15.49,9l-9,.26Z"/><g class="cls-8"><path d="M53.75,329.34c-.74-2.95,1.2-5.89,3.38-8s4.77-4,5.92-6.84c1.85-4.57-.57-10.5,2.57-14.3,1.84-2.24,5.13-3,6.77-5.36a12.28,12.28,0,0,0,1.49-4.28,43.55,43.55,0,0,1,10.95-20.21,37.79,37.79,0,0,1-4.36,19.51c-1.27,2.39-2.84,4.72-3.27,7.4-.7,4.35,1.7,8.84.61,13.11-1.25,4.88-6.76,8.12-7,13.14-.24,4.25,3.44,8,3.14,12.25a11.47,11.47,0,0,1-1.92,5c-3.32,5.45-8.17,9.18-15.49,9l-9,.26Z"/></g><path class="cls-5" d="M45.7,350.27a7.16,7.16,0,0,1-2.47-.07,15,15,0,0,1-2.91-.75,12.34,12.34,0,0,1-3.59-2,5,5,0,0,1-1.47-2,9.28,9.28,0,0,1-.41-2.68,26,26,0,0,0-.19-2.9A8,8,0,0,0,33.59,337c-1-1.86-2.79-3.63-3.34-6.15s-.14-5.16.29-7.86.85-5.62-.16-8.42-2.9-5.35-3.86-8.52-.48-6.63-.67-10a13.29,13.29,0,0,0-1.14-5C24,289.48,23,288,22.21,286.3c-1.57-3.39-1.83-7.21-2.24-11l-.61-5.73a28,28,0,0,0-1-5.74,50.61,50.61,0,0,0-2.11-5.56,18.43,18.43,0,0,1-1-2.9,29.13,29.13,0,0,1-.27-3.08,36.33,36.33,0,0,1,.27-6.2c.26-2.07.64-4.12.87-6.19l0-.36,0-.41.37.19a13.85,13.85,0,0,1,4.8,4.1,22,22,0,0,1,2.93,5.48c1.48,3.86,2,7.9,2.72,11.75a31.89,31.89,0,0,0,3.62,10.86c1,1.6,2.15,3.07,3.18,4.63a12.67,12.67,0,0,1,2.2,5.12c.51,3.8-1.6,7.11-1.18,10.47a11.63,11.63,0,0,0,1.61,4.66c.81,1.44,1.76,2.77,2.66,4.11a26.29,26.29,0,0,1,2.38,4.15,13.11,13.11,0,0,1,1.08,4.5c.2,3-.24,5.89,0,8.6a19.79,19.79,0,0,0,2.17,7.38c1.07,2.21,2.27,4.21,3.27,6.15a31.45,31.45,0,0,1,1.34,2.86A14.06,14.06,0,0,1,50.1,337a17.89,17.89,0,0,1,0,5.12,12.89,12.89,0,0,1-2.6,6.51,6.2,6.2,0,0,1-.73.78,3.56,3.56,0,0,1-.59.5c-.34.24-.51.36-.51.36a11.33,11.33,0,0,0,1.75-1.71,13,13,0,0,0,2.47-6.47,17.79,17.79,0,0,0-.09-5,13.83,13.83,0,0,0-.78-2.77c-.38-.93-.84-1.87-1.35-2.83-1-1.92-2.22-3.92-3.31-6.14a20.12,20.12,0,0,1-2.25-7.51c-.22-2.77.21-5.64,0-8.59a12.66,12.66,0,0,0-1.06-4.35,25.9,25.9,0,0,0-2.36-4.07c-.9-1.33-1.86-2.67-2.69-4.14a12.11,12.11,0,0,1-1.68-4.85c-.41-3.58,1.68-6.92,1.16-10.45a12.16,12.16,0,0,0-2.12-4.9c-1-1.53-2.2-3-3.2-4.64a32.37,32.37,0,0,1-3.71-11c-.74-3.88-1.26-7.88-2.71-11.66a21.41,21.41,0,0,0-2.86-5.34,13.28,13.28,0,0,0-4.6-3.93l.41-.23,0,.36c-.24,2.1-.62,4.15-.88,6.19a35.81,35.81,0,0,0-.27,6.11,29.31,29.31,0,0,0,.26,3,18.05,18.05,0,0,0,1,2.8,51,51,0,0,1,2.13,5.62,28.52,28.52,0,0,1,1,5.83l.6,5.74c.41,3.77.67,7.54,2.18,10.81.75,1.63,1.74,3.13,2.48,4.78A13.8,13.8,0,0,1,26.35,296c.18,3.46-.29,6.84.62,9.91s2.85,5.61,3.82,8.51.59,6,.14,8.63-.9,5.32-.33,7.71,2.2,4.16,3.27,6.08a8.3,8.3,0,0,1,1.09,3,25.94,25.94,0,0,1,.17,2.94,9.09,9.09,0,0,0,.37,2.61,4.8,4.8,0,0,0,1.38,1.89,12.3,12.3,0,0,0,3.5,2,15.44,15.44,0,0,0,2.87.8,11.49,11.49,0,0,0,1.82.19Z"/><path class="cls-5" d="M18,244.51a1,1,0,0,1,.09.27l.19.81c.17.71.38,1.77.71,3.11s1.15,2.84,1.83,4.69,1.43,4,2.09,6.37,1.26,5.05,1.88,7.9a33.22,33.22,0,0,0,2.82,8.77c.73,1.46,1.55,2.94,2.19,4.55A21.15,21.15,0,0,1,31,286.14,104,104,0,0,0,32.92,297l5,20.74L42,334.65l2.75,11.42.72,3.11.17.81a1.05,1.05,0,0,1,0,.28,1.05,1.05,0,0,1-.1-.27l-.23-.8-.82-3.09-2.93-11.37-4.27-16.89-5-20.75a102.55,102.55,0,0,1-1.87-10.9,20.68,20.68,0,0,0-1.21-5c-.62-1.57-1.43-3-2.16-4.52a33.43,33.43,0,0,1-2.81-8.91c-.6-2.85-1.16-5.51-1.8-7.89s-1.32-4.52-2-6.36-1.43-3.37-1.75-4.75-.47-2.42-.6-3.14l-.14-.82A1.05,1.05,0,0,1,18,244.51Z"/><path class="cls-7" d="M44.12,350.29c-5.84-3.51-7.46-14.09-5-20.43s6.79-12.13,7.48-18.91c.54-5.21-1.14-10.57.1-15.65,1.68-6.86,8.42-12.15,8.38-19.22,0-4-2.26-7.71-2.05-11.67.25-4.86,4-8.69,6.33-13,3.57-6.53,3.85-14.27,5.1-21.61s4.09-15.19,10.62-18.76c.93,6.24,2.54,10.52,2,19-.2,3-3.76,8.82-4.28,15.47-.31,4-.53,8-.8,11.93s-.53,7.81-1.94,11.42c-1.08,2.77-2.8,5.28-3.61,8.14-1.52,5.38.4,11.23-.83,16.68-1,4.62-4.27,8.58-4.95,13.27-1,6.59,3.27,13.46,1.05,19.73-1.1,3.11-3.68,5.6-4.43,8.82-.58,2.5,0,5.15-.5,7.65-.85,4-8.58,7.14-12.7,6.86"/><path class="cls-5" d="M73.47,217.27a1.61,1.61,0,0,1,0,.35l-.14,1c-.14.9-.3,2.22-.61,3.93s-1.23,3.65-2,6-1.52,5-2.19,8-1.26,6.32-1.87,9.9-1.27,7.47-3.07,11.19c-.83,1.87-1.76,3.73-2.47,5.73a25.77,25.77,0,0,0-1.27,6.32,127.71,127.71,0,0,1-1.79,13.63l-5.2,26-4.48,21.19-3.07,14.28-.86,3.88-.24,1a1.62,1.62,0,0,1-.1.34,1.6,1.6,0,0,1,0-.35l.18-1,.76-3.9L48,330.45l4.36-21.22,5.16-26a129.22,129.22,0,0,0,1.8-13.59,26.24,26.24,0,0,1,1.31-6.45c.72-2,1.67-3.91,2.5-5.76,1.79-3.66,2.43-7.49,3.08-11.05s1.23-6.9,1.94-9.91,1.49-5.69,2.28-8,1.68-4.25,2-5.93.54-3,.72-3.9l.19-1A1.6,1.6,0,0,1,73.47,217.27Z"/><rect class="cls-7" x="331.79" y="213.82" width="6.04" height="19.53"/><rect class="cls-7" x="342.92" y="205.79" width="6.04" height="27.56"/><rect class="cls-7" x="354.76" y="202.03" width="6.04" height="31.32"/><rect class="cls-7" x="366.6" y="198.07" width="6.04" height="35.27"/><path class="cls-5" d="M128.05,239.16a4.15,4.15,0,0,1,1.3.41,5.47,5.47,0,0,1,2.59,2.62,5.54,5.54,0,0,1,.53,2.53,5.63,5.63,0,0,1-.87,2.84,5.63,5.63,0,0,1-2.49,2.14,5.61,5.61,0,0,1-6.52-1.46,5.63,5.63,0,0,1-1.34-3,5.62,5.62,0,0,1,.42-2.94,5.54,5.54,0,0,1,1.56-2.06A5.47,5.47,0,0,1,126.7,239a4.15,4.15,0,0,1,1.35.19s-.48-.1-1.34-.06a5.48,5.48,0,0,0-3.32,1.31,5.37,5.37,0,0,0-1.84,4.79,5.37,5.37,0,0,0,1.28,2.83A5.32,5.32,0,0,0,129,249.4a5.37,5.37,0,0,0,2.36-2,5.37,5.37,0,0,0,.38-5.12,5.48,5.48,0,0,0-2.44-2.6C128.53,239.27,128,239.19,128.05,239.16Z"/><path class="cls-5" d="M132.46,233.27a1.19,1.19,0,0,1,0-.19v-.59l0-2.32,0,0-5-1.09.09,0-1.32,2.8,0,.05h-.06a12.53,12.53,0,0,0-3.26.58l-.06,0,0,0-2.2-2.18.14,0-4.32,2.75.05-.15,1,2.91,0,.07-.05.06a12.46,12.46,0,0,0-1.9,2.7l0,.07h-3.18l.14-.11-1.11,5-.08-.16,2.8,1.32.08,0V245a12.49,12.49,0,0,0,.57,3.25l0,.09-.07.07-2.18,2.2,0-.19,2.74,4.33-.18-.06,2.92-1,.09,0,.07.06a12.41,12.41,0,0,0,2.69,1.9h0l.09.14h0v1.53q0,.77,0,1.54l-.12-.15,5,1.12-.18.09L127,257l0-.08h.09a12.41,12.41,0,0,0,3.25-.56l.09,0,.07.07,2.19,2.19-.19,0,4.33-2.74-.06.17-1-2.92,0-.08.06-.06a12.42,12.42,0,0,0,1.91-2.7l0-.07h3.18l-.13.1,1.13-5,.07.14-2.79-1.33-.06,0V244a12.5,12.5,0,0,0-.56-3.26l0-.06,0,0,2.19-2.19v.12L138,234.2l.08,0-2.92,1h0l0,0a13,13,0,0,0-2-1.53l-.53-.32-.18-.11.19.09c.12.06.31.16.55.3a12.15,12.15,0,0,1,2,1.5h-.05l2.91-1.06.05,0,0,0,2.76,4.31,0,.06-.05.05-2.18,2.2,0-.1a12.66,12.66,0,0,1,.59,3.32l-.06-.1,2.8,1.32.09,0,0,.09-1.11,5,0,.1h-3.2l.12-.07a12.68,12.68,0,0,1-1.94,2.76l0-.14,1,2.92,0,.11-.1.06-4.32,2.75-.1.06-.09-.08-2.2-2.18.15,0a12.7,12.7,0,0,1-3.33.58l.13-.09-1.33,2.8-.05.11-.12,0-5-1.12-.12,0v-3.2h0l.08.14h0a12.72,12.72,0,0,1-2.76-1.95l.16,0-2.92,1-.12,0-.07-.11-2.74-4.33-.07-.1.09-.09,2.19-2.19,0,.15a12.77,12.77,0,0,1-.58-3.33l.09.13-2.79-1.33-.11-.05,0-.11,1.13-5,0-.11h3.21l-.12.07a12.69,12.69,0,0,1,1.95-2.76l0,.13-1-2.92,0-.09.08-.05,4.33-2.73.08,0,.06.06,2.19,2.19-.1,0a12.66,12.66,0,0,1,3.32-.57l-.08.05,1.34-2.79,0-.06h.06l5,1.15h0v0c0,1,0,1.76,0,2.3v.59A1.54,1.54,0,0,1,132.46,233.27Z"/><path class="cls-10" d="M123,194.37a13.89,13.89,0,0,1,3,2.13l3.22-1.15,3,4.78-2.41,2.43a13.87,13.87,0,0,1,.63,3.64l3.09,1.47-1.24,5.53h-3.42a13.85,13.85,0,0,1-2.13,3l1.15,3.22-4.78,3-2.43-2.41a13.88,13.88,0,0,1-3.64.63l-1.47,3.09-5.53-1.24v-3.42a13.86,13.86,0,0,1-3-2.13l-3.22,1.15-3-4.78,2.42-2.43a13.9,13.9,0,0,1-.63-3.64l-3.09-1.47,1.24-5.53h3.42a13.85,13.85,0,0,1,2.13-3l-1.15-3.22,4.78-3,2.43,2.42a13.88,13.88,0,0,1,3.64-.63l1.47-3.09L123,191v3.42Zm-4.87,6.5a6.07,6.07,0,1,0,4.6,7.26A6.07,6.07,0,0,0,118.15,200.87Z"/><g class="cls-3"><path class="cls-11" d="M123,194.37a13.89,13.89,0,0,1,3,2.13l3.22-1.15,3,4.78-2.41,2.43a13.87,13.87,0,0,1,.63,3.64l3.09,1.47-1.24,5.53h-3.42a13.85,13.85,0,0,1-2.13,3l1.15,3.22-4.78,3-2.43-2.41a13.88,13.88,0,0,1-3.64.63l-1.47,3.09-5.53-1.24v-3.42a13.86,13.86,0,0,1-3-2.13l-3.22,1.15-3-4.78,2.42-2.43a13.9,13.9,0,0,1-.63-3.64l-3.09-1.47,1.24-5.53h3.42a13.85,13.85,0,0,1,2.13-3l-1.15-3.22,4.78-3,2.43,2.42a13.88,13.88,0,0,1,3.64-.63l1.47-3.09L123,191v3.42Zm-4.87,6.5a6.07,6.07,0,1,0,4.6,7.26A6.07,6.07,0,0,0,118.15,200.87Z"/></g><path class="cls-10" d="M103,226.92a8.09,8.09,0,0,1,1.76,1.24l1.88-.67,1.76,2.78L107,231.69a8.08,8.08,0,0,1,.37,2.12l1.8.85-.72,3.22h-2a8.06,8.06,0,0,1-1.24,1.76l.67,1.88-2.78,1.76-1.41-1.41a8.08,8.08,0,0,1-2.12.37l-.85,1.8-3.22-.72v-2a8.07,8.07,0,0,1-1.76-1.24l-1.88.67L90.13,238l1.41-1.41a8.1,8.1,0,0,1-.37-2.12l-1.8-.85.72-3.22h2a8.06,8.06,0,0,1,1.24-1.76l-.67-1.88L95.44,225l1.41,1.41A8.08,8.08,0,0,1,99,226l.85-1.8,3.22.72v2Zm-2.84,3.78a3.54,3.54,0,1,0,2.68,4.22A3.54,3.54,0,0,0,100.2,230.71Z"/><g class="cls-12"><path class="cls-11" d="M103,226.92a8.09,8.09,0,0,1,1.76,1.24l1.88-.67,1.76,2.78L107,231.69a8.08,8.08,0,0,1,.37,2.12l1.8.85-.72,3.22h-2a8.06,8.06,0,0,1-1.24,1.76l.67,1.88-2.78,1.76-1.41-1.41a8.08,8.08,0,0,1-2.12.37l-.85,1.8-3.22-.72v-2a8.07,8.07,0,0,1-1.76-1.24l-1.88.67L90.13,238l1.41-1.41a8.1,8.1,0,0,1-.37-2.12l-1.8-.85.72-3.22h2a8.06,8.06,0,0,1,1.24-1.76l-.67-1.88L95.44,225l1.41,1.41A8.08,8.08,0,0,1,99,226l.85-1.8,3.22.72v2Zm-2.84,3.78a3.54,3.54,0,1,0,2.68,4.22A3.54,3.54,0,0,0,100.2,230.71Z"/></g><path class="cls-5" d="M294.56,195a8.47,8.47,0,0,0,6.13-8.45c-.11-1.7-.74-3.35-.66-5,.11-2.64,1.86-4.87,3.18-7.15s2.2-5.3.67-7.45c-1-1.39-2.75-2-4-3.24a12.8,12.8,0,0,1-2.37-4.39,7.62,7.62,0,0,0-2.91-4c-1.46-.83-3.69-.46-4.28,1.11"/><path class="cls-5" d="M278.81,152.23c2.6-1.65,3.23-5.47,1.82-8.21a10,10,0,0,0-7.43-4.89,14.16,14.16,0,0,0-12.2,4c-1.68,1.73-3,4-5.31,4.77-2,.7-4.21.07-6.31.34a9.52,9.52,0,0,0-6.67,4.81,20.55,20.55,0,0,0-2.37,8.11c-.31,2.58-.51,5.42-2.3,7.31s-4.51,2.23-6.69,3.54a9.15,9.15,0,0,0-2.72,12.5c.86,1.26,2.1,2.41,2.2,3.93s-.81,2.62-1.23,3.95a6.18,6.18,0,0,0,5.28,7.67c1.8.1,3.74-.6,5.35.21s2.2,2.74,3.23,4.21a7.72,7.72,0,0,0,9.42,2.43c1.33-.65,2.58-1.72,4.05-1.63s2.63,1.36,4.08,1.64c1.9.37,3.7-1,4.82-2.6s1.91-3.41,3.35-4.7c1.89-1.68,4.54-2.1,6.93-2.92a19.55,19.55,0,0,0,11-27.39"/><path class="cls-13" d="M284.51,155.64a4.15,4.15,0,0,1,3.71,4.22h0l-2.48,56.08c-.1,6.62-9.79,10.35-16.88,10.18h0c-7.16-.17-7.39-3.68-7.48-10-.15-10.53-.14-14.48-.14-14.42s-9-1.52-10.89-13.33c-.92-5.87-.6-15.5-.09-23.37.46-7.08,5.17-15.76,12.23-15Z"/><path class="cls-5" d="M252.86,172.67a1.51,1.51,0,0,0,1.46,1.53,1.45,1.45,0,0,0,1.56-1.36,1.51,1.51,0,0,0-1.45-1.53A1.45,1.45,0,0,0,252.86,172.67Z"/><path class="cls-5" d="M252.33,170c.19.2,1.34-.65,3-.64s2.82.83,3,.63-.1-.44-.62-.83a4.16,4.16,0,0,0-2.4-.75,4,4,0,0,0-2.36.76C252.41,169.59,252.24,169.95,252.33,170Z"/><path class="cls-5" d="M269.1,172.67a1.51,1.51,0,0,0,1.46,1.53,1.45,1.45,0,0,0,1.56-1.36,1.51,1.51,0,0,0-1.46-1.53A1.45,1.45,0,0,0,269.1,172.67Z"/><path class="cls-5" d="M268.35,170.38c.19.2,1.34-.65,3-.64s2.82.83,3,.63-.1-.44-.62-.83a4.15,4.15,0,0,0-2.4-.75,4,4,0,0,0-2.36.76C268.43,169.93,268.26,170.29,268.35,170.38Z"/><path class="cls-5" d="M262.41,182.45a10.79,10.79,0,0,0-2.65-.48c-.42,0-.81-.13-.88-.41a2.12,2.12,0,0,1,.28-1.23l1.24-3.17c1.72-4.51,3-8.21,2.78-8.28s-1.72,3.53-3.44,8l-1.19,3.18a2.41,2.41,0,0,0-.22,1.63,1,1,0,0,0,.68.61,2.82,2.82,0,0,0,.71.1A10.59,10.59,0,0,0,262.41,182.45Z"/><path class="cls-14" d="M261.24,201.73a30,30,0,0,0,15.82-4.18s-4,8.32-15.82,7.19Z"/><path class="cls-7" d="M263.09,186.38a2.94,2.94,0,0,1,2.63-1.08,2.68,2.68,0,0,1,1.85,1,1.7,1.7,0,0,1,.12,1.94,2,2,0,0,1-2.14.54,6.17,6.17,0,0,1-2.08-1.25A1.8,1.8,0,0,1,263,187a.54.54,0,0,1,0-.61"/><path class="cls-5" d="M267.2,183.59c-.26,0-.27,1.75-1.79,3s-3.4,1.05-3.41,1.3.42.34,1.21.37a4.4,4.4,0,0,0,2.85-1,3.83,3.83,0,0,0,1.39-2.52C267.52,184,267.32,183.58,267.2,183.59Z"/><path class="cls-5" d="M267.62,167.52c.16.44,1.79.24,3.7.47s3.46.76,3.71.36c.11-.19-.15-.61-.78-1a6.48,6.48,0,0,0-5.64-.64C267.91,167,267.55,167.31,267.62,167.52Z"/><path class="cls-5" d="M252.94,165.32c.29.37,1.41,0,2.76,0s2.49.25,2.76-.13c.12-.19-.06-.56-.56-.91a4,4,0,0,0-4.44.13C253,164.76,252.82,165.14,252.94,165.32Z"/><path class="cls-5" d="M276.76,151.8a11.47,11.47,0,0,1,9.36-1.75c3.15.9,5.76,3.74,5.87,7,.07,2.09-.83,4.3.09,6.18s3.05,2.52,4.59,3.82a7,7,0,0,1,1.63,8.52c-1.29,2.37-4,4.1-4.23,6.77-.21,2.51,1.91,4.64,2.42,7.11.57,2.73-.94,5.55-3.1,7.36a24.36,24.36,0,0,1-7.57,3.77c-2.08.75-4.32,1.51-6.48,1a6.63,6.63,0,0,1-4.86-5.54,9,9,0,0,1,2.46-7.13c1.52-1.67,3.64-3.09,4-5.29.57-3.43-3.52-6.25-3.27-9.72.13-1.79,1.39-3.27,2.44-4.74s2-3.32,1.32-5c-.84-2.18-3.71-2.75-5.44-4.35a5.3,5.3,0,0,1-1.45-5.37,5.47,5.47,0,0,1,4.28-3.65"/><path class="cls-5" d="M278,149.14a8.08,8.08,0,0,1-9.53,8c-1.8-.33-3.78-1.24-5.34-.28s-1.71,3.49-3.17,4.75c-2.08,1.81-5.39.11-8,.9-2,.61-3.32,2.56-4.67,4.2s-3.39,3.2-5.43,2.6a24,24,0,0,1,.81-5.44,8.05,8.05,0,0,1,3.09-4.44,29.82,29.82,0,0,0,2.61-1.52c1.69-1.37,2.09-3.75,3.13-5.66a8.85,8.85,0,0,1,6.74-4.47c2.32-.24,4.72.46,7-.11,1.67-.42,3.14-1.51,4.83-1.83,3.3-.63,6.37,1.74,8.77,4.1"/><path class="cls-15" d="M299.6,177.37a2.56,2.56,0,0,0,.26-1.36,3.43,3.43,0,0,0-2.38-2.72,17.56,17.56,0,0,0-2.6-.7,7.6,7.6,0,0,1-2.94-1.21,4.14,4.14,0,0,1-1.53-3.16,33.27,33.27,0,0,1,.18-3.72,8.52,8.52,0,0,0-.09-1.82,3.89,3.89,0,0,0-.7-1.55,5.93,5.93,0,0,0-2.84-1.63,12.77,12.77,0,0,1-2.9-1.25,10.19,10.19,0,0,1-4.22-5.11,7,7,0,0,1-.3-1,1.18,1.18,0,0,1-.05-.37s.16.49.52,1.34a10.53,10.53,0,0,0,2.15,3.21,10.66,10.66,0,0,0,4.93,2.82,6.26,6.26,0,0,1,3.05,1.75,4.31,4.31,0,0,1,.79,1.74,8.84,8.84,0,0,1,.1,1.93,35,35,0,0,0-.19,3.67,3.73,3.73,0,0,0,1.34,2.86,7.35,7.35,0,0,0,2.77,1.18,16.94,16.94,0,0,1,2.63.77,4.16,4.16,0,0,1,1.83,1.37A3.15,3.15,0,0,1,300,176a2.07,2.07,0,0,1-.21,1.07A.81.81,0,0,1,299.6,177.37Z"/><path class="cls-15" d="M230.05,184.73l-.19-.09a1.3,1.3,0,0,1-.44-.45,2.39,2.39,0,0,1,.24-2.33,3.12,3.12,0,0,1,1.26-1.21,16.27,16.27,0,0,1,1.9-.8,5.86,5.86,0,0,0,2-1.13,4.25,4.25,0,0,0,1.13-2.24c.2-.89.26-1.85.42-2.86a6.27,6.27,0,0,1,1.17-3c1.37-1.81,3.63-2.77,5.31-4.47a8.18,8.18,0,0,0,1.84-3.13,21.5,21.5,0,0,0,.84-3.78c.37-2.59.73-5.5,2.48-7.87a5.75,5.75,0,0,1,3.56-2.3,12.48,12.48,0,0,1,4.11.1,14.94,14.94,0,0,0,3.84.22,5,5,0,0,0,3.14-1.62c1.61-1.74,2.54-4.08,4.52-5.28a7.55,7.55,0,0,1,6-.82,6.61,6.61,0,0,1,3.93,3.05,7.43,7.43,0,0,1,1,3.64,6.39,6.39,0,0,1-.38,2.36,4,4,0,0,1-.35.76s.1-.27.26-.79a6.71,6.71,0,0,0,.29-2.33,7.35,7.35,0,0,0-1.06-3.52,6.37,6.37,0,0,0-3.8-2.87,7.24,7.24,0,0,0-5.68.83,8.31,8.31,0,0,0-2.28,2.35,26.24,26.24,0,0,1-2.14,2.89,5.88,5.88,0,0,1-1.51,1.18,5.59,5.59,0,0,1-1.88.58,15.23,15.23,0,0,1-4-.21,12.13,12.13,0,0,0-4-.1,5.3,5.3,0,0,0-3.29,2.13,10.94,10.94,0,0,0-1.69,3.7,36.46,36.46,0,0,0-.72,4,21.77,21.77,0,0,1-.86,3.86,8.58,8.58,0,0,1-2,3.28c-1.78,1.76-4,2.71-5.31,4.41a5.92,5.92,0,0,0-1.13,2.81c-.17,1-.23,2-.45,2.88a4.54,4.54,0,0,1-1.25,2.38,6.06,6.06,0,0,1-2.09,1.15,16.64,16.64,0,0,0-1.89.75,3,3,0,0,0-1.22,1.11,2.31,2.31,0,0,0-.31,2.2A1.9,1.9,0,0,0,230.05,184.73Z"/><path class="cls-7" d="M201.08,266,222,264.1s12.89-33.95,28.78-42.18l10.29,18-22,41.39H196Z"/><path class="cls-8" d="M201.08,266,222,264.1s12.89-33.95,28.78-42.18l10.29,18-22,41.39H196Z"/><ellipse class="cls-9" cx="211.31" cy="272.33" rx="3.82" ry="0.23" transform="translate(-130.86 313.96) rotate(-59.13)"/><ellipse class="cls-9" cx="221.81" cy="272.23" rx="0.23" ry="3.8" transform="translate(-121.63 199.03) rotate(-38.79)"/><ellipse class="cls-9" cx="226.77" cy="264.66" rx="0.23" ry="2.75"/><ellipse class="cls-9" cx="217.52" cy="278.32" rx="0.23" ry="2.24" transform="translate(-134.46 308.07) rotate(-56.82)"/><ellipse class="cls-9" cx="229.77" cy="252.03" rx="4.04" ry="0.23" transform="translate(-94.18 358.69) rotate(-65.87)"/><ellipse class="cls-9" cx="238.1" cy="235.96" rx="2.27" ry="0.23" transform="translate(-94.18 191.71) rotate(-37.16)"/><path class="cls-7" d="M271.24,278.61,282,235a14.84,14.84,0,0,1,17-11h0a14.84,14.84,0,0,1,12,16.88l-6.61,42.64a21.33,21.33,0,0,1-17.7,17.26l-8.59,1.34Z"/><path class="cls-5" d="M305.28,221.13a9.76,9.76,0,0,0-3.85-1.94,10.27,10.27,0,0,0-4.65,0,12.61,12.61,0,0,0-5.05,2.64,24.52,24.52,0,0,0-6.06,8.52c-.58,1.23-1,2.24-1.33,2.93a6,6,0,0,1-.53,1.06,5.88,5.88,0,0,1,.36-1.13c.26-.71.66-1.74,1.21-3A32.49,32.49,0,0,1,287.6,226a18.94,18.94,0,0,1,3.84-4.47,12.71,12.71,0,0,1,5.25-2.69,10.27,10.27,0,0,1,4.82.06,8.21,8.21,0,0,1,2.93,1.41,5.54,5.54,0,0,1,.66.59C305.22,221,305.29,221.12,305.28,221.13Z"/><path class="cls-5" d="M244.09,230.94a2.13,2.13,0,0,1-.3.41l-.92,1.11c-.8,1-1.94,2.37-3.24,4.19a44.58,44.58,0,0,0-7.37,15.66c-1.51,6.65-1.58,12.88-1.84,17.34-.11,2.24-.21,4-.31,5.3l-.13,1.44a2.13,2.13,0,0,1-.08.5,2.12,2.12,0,0,1,0-.5l0-1.44.17-5.3c.17-4.46.2-10.71,1.72-17.43a43.1,43.1,0,0,1,7.56-15.74c1.34-1.8,2.52-3.18,3.37-4.11.42-.47.76-.81,1-1.05A2.12,2.12,0,0,1,244.09,230.94Z"/><path class="cls-7" d="M313.31,230.85c-1.18-7.8-5.49-9.67-10-12.1-1.46-.79-8.49-2.6-14.07-4-.53-3.38-1.49-9.43-1.7-10.7-.29-1.79-28.41,2.69-28.76,3.36-.24.45-.88,7.45-1.29,12.12l-6.73,2.35L242,233.09l-4.57,6.49A35,35,0,0,0,231.78,252a68,68,0,0,0-1.26,15.11l-1.36,28.64L288,312.42l4.55-29,15.17-20.66C309,254.4,314.76,240.44,313.31,230.85Z"/><path class="cls-5" d="M263.11,220.47a9,9,0,0,1-.39-2c-.18-1.23-.41-2.94-.63-4.83L261.8,211a18.76,18.76,0,0,1-.16-2.21,2.65,2.65,0,0,1,.42-1.47c.23-.29.42-.37.43-.36s-.13.16-.28.45a2.82,2.82,0,0,0-.25,1.37c0,.6.15,1.34.25,2.16l.33,2.66c.22,1.89.39,3.6.5,4.85A9,9,0,0,1,263.11,220.47Z"/><path class="cls-5" d="M270.61,218.7a6.78,6.78,0,0,1-.63-1.82,29.13,29.13,0,0,1-.85-9.21,6.78,6.78,0,0,1,.28-1.9c.14,0-.12,2.93.22,6.5S270.74,218.66,270.61,218.7Z"/><path class="cls-5" d="M284.56,216.67a22.1,22.1,0,0,0-2.19-12.61,5.83,5.83,0,0,1,1,1.63,16.43,16.43,0,0,1,1.58,9.1A5.83,5.83,0,0,1,284.56,216.67Z"/><path class="cls-9" d="M244.62,242.18a27,27,0,0,1,5.16-6.88,27.82,27.82,0,0,1-2.49,3.5A27.81,27.81,0,0,1,244.62,242.18Z"/><ellipse class="cls-9" cx="255.71" cy="228.58" rx="0.23" ry="3.56" transform="translate(-86.26 202.26) rotate(-37.39)"/><path class="cls-9" d="M271.72,224.63a104.9,104.9,0,0,1-5.64,5.49,20.68,20.68,0,0,1,5.64-5.49Z"/><ellipse class="cls-9" cx="265.82" cy="214.56" rx="0.23" ry="2.71" transform="translate(-71.65 267.54) rotate(-47.83)"/><ellipse class="cls-9" cx="277" cy="210.54" rx="3.03" ry="0.23" transform="translate(-37.95 62.68) rotate(-12.09)"/><ellipse class="cls-9" cx="282.23" cy="226.08" rx="0.23" ry="3.04" transform="translate(-11.05 14.53) rotate(-2.89)"/><ellipse class="cls-9" cx="276.66" cy="234.76" rx="0.23" ry="3.82" transform="translate(-63.67 108.95) rotate(-20.03)"/><ellipse class="cls-9" cx="264.49" cy="241.11" rx="0.23" ry="4.03" transform="translate(-69.37 112.16) rotate(-21.23)"/><ellipse class="cls-9" cx="253.88" cy="248.56" rx="0.23" ry="3.76" transform="translate(-44.7 55.97) rotate(-11.57)"/><ellipse class="cls-9" cx="239.59" cy="249.22" rx="0.23" ry="3.68" transform="translate(-84.95 130.1) rotate(-25.97)"/><ellipse class="cls-9" cx="237.29" cy="262.94" rx="4.04" ry="0.23" transform="translate(-91.91 132.28) rotate(-26.29)"/><path class="cls-9" d="M241.08,274.78a15.52,15.52,0,0,1-1.73-6.5,68.91,68.91,0,0,1,1.73,6.5Z"/><ellipse class="cls-9" cx="235.62" cy="281.91" rx="0.23" ry="3.63" transform="translate(-131.42 265.4) rotate(-47.54)"/><path class="cls-9" d="M256,277.82c0,.13-2,.7-4.28,1.72s-4.1,2.09-4.17,2a18.29,18.29,0,0,1,8.45-3.7Z"/><ellipse class="cls-9" cx="249.77" cy="270.03" rx="0.23" ry="3.22" transform="translate(-74.93 97.19) rotate(-19.21)"/><ellipse class="cls-9" cx="258.77" cy="265.42" rx="4.81" ry="0.23" transform="translate(-103.75 342.81) rotate(-57.78)"/><path class="cls-9" d="M272.61,262.48a26.74,26.74,0,0,1-5-8.33c.12-.06,1.13,1.87,2.51,4.16S272.72,262.4,272.61,262.48Z"/><path class="cls-9" d="M279.37,251.34a13.32,13.32,0,0,1-6.64.33,21.82,21.82,0,0,1,3.32-.19A21.84,21.84,0,0,1,279.37,251.34Z"/><ellipse class="cls-9" cx="291.08" cy="240.72" rx="4.82" ry="0.23" transform="translate(-75.24 148.61) rotate(-25.48)"/><ellipse class="cls-9" cx="298.21" cy="227.11" rx="3.88" ry="0.23" transform="translate(-37.72 393.41) rotate(-63.63)"/><path class="cls-9" d="M306.69,236.92a28.4,28.4,0,0,1-1.32-3.95,28.4,28.4,0,0,1-1.17-4,23.42,23.42,0,0,1,2.48,7.94Z"/><path class="cls-9" d="M308.29,245.31a20.38,20.38,0,0,1-7.81,2,29.62,29.62,0,0,1,3.89-1A29.62,29.62,0,0,1,308.29,245.31Z"/><path class="cls-9" d="M290.81,255.56c-.13,0,.24-2.14.35-4.76s-.07-4.76.06-4.78a19.47,19.47,0,0,1-.41,9.54Z"/><path class="cls-9" d="M287.33,266.11a21.38,21.38,0,0,1-5.64-6.79c.11-.07,1.26,1.54,2.81,3.4S287.42,266,287.33,266.11Z"/><ellipse class="cls-9" cx="301.15" cy="265.44" rx="4.01" ry="0.23" transform="translate(-79.03 136.55) rotate(-22.67)"/><ellipse class="cls-9" cx="298.62" cy="278.97" rx="4.77" ry="0.23" transform="matrix(0.01, -1, 1, 0.01, 16.66, 574.77)"/><path class="cls-9" d="M285.12,282.6a27.66,27.66,0,0,1,2.4-9.59c.12,0-.54,2.15-1.2,4.8S285.25,282.62,285.12,282.6Z"/><path class="cls-9" d="M285.74,287.81c0,.13-2.16.34-4.79.78s-4.75.93-4.79.8a25.5,25.5,0,0,1,9.58-1.58Z"/><ellipse class="cls-9" cx="273.59" cy="281.64" rx="3.93" ry="0.23" transform="translate(-119.06 282.77) rotate(-45.99)"/><path class="cls-9" d="M261.22,293.85a31.49,31.49,0,0,1-1.17-3.39,31.49,31.49,0,0,1-1.21-3.38,13.87,13.87,0,0,1,2.38,6.77Z"/><ellipse class="cls-9" cx="272.52" cy="297.32" rx="0.23" ry="4.66" transform="translate(-109.79 425.78) rotate(-66.06)"/><ellipse class="cls-9" cx="250.69" cy="294.53" rx="3.27" ry="0.23" transform="translate(-107.84 439.61) rotate(-71.63)"/><path class="cls-9" d="M267.53,300.66c0,.13-2.49-.27-5.56-.42s-5.56,0-5.57-.17a27,27,0,0,1,11.13.59Z"/><path class="cls-5" d="M271.24,275.09a1,1,0,0,1,0-.34,3.21,3.21,0,0,1,.14-1,2.17,2.17,0,0,1,.94-1.29,3,3,0,0,1,2.12-.35l-.18.1c1-3.33,2.47-8.18,4-13.63,1.42-5.1,2.38-9.79,3.05-13.2l.79-4a9.66,9.66,0,0,1,.34-1.47,9.62,9.62,0,0,1-.17,1.5c-.14,1-.36,2.35-.65,4.06-.59,3.42-1.5,8.14-2.93,13.26-1.52,5.46-3.09,10.3-4.13,13.6l0,.13-.14,0a2.81,2.81,0,0,0-1.93.26,2,2,0,0,0-.91,1.14A12.18,12.18,0,0,0,271.24,275.09Z"/><path class="cls-5" d="M290.68,287.15c-.07,0-.61-1.14-1.71-2.89a29.81,29.81,0,0,0-11.8-10.72c-1.85-.93-3.07-1.35-3-1.43a3.5,3.5,0,0,1,.88.23,19.49,19.49,0,0,1,2.3.91,27,27,0,0,1,11.93,10.84,19.5,19.5,0,0,1,1.12,2.2A3.5,3.5,0,0,1,290.68,287.15Z"/><g class="cls-16"><path d="M274.63,271.47a30.49,30.49,0,0,1,9.15,1.65c3.11,1.17,6,3.4,7.13,6.52a2.15,2.15,0,0,1-.16,2.25,1.61,1.61,0,0,1-1.64.26,4.33,4.33,0,0,1-1.44-1c-1.91-1.77-3.89-3.33-5.87-5a16.53,16.53,0,0,0-7.41-3.88"/></g><path class="cls-5" d="M268.37,265.94a4,4,0,0,1-.9.52,15.82,15.82,0,0,1-2.67,1,17.82,17.82,0,0,1-17.46-4.53,15.81,15.81,0,0,1-1.84-2.18,4,4,0,0,1-.54-.9c.07-.05.86,1.22,2.6,2.84a18.38,18.38,0,0,0,17.16,4.46C267,266.59,268.34,265.86,268.37,265.94Z"/><g class="cls-16"><path d="M245.43,260.53c1.46,3.18,3.17,6.37,5.94,8.5a9.53,9.53,0,0,0,5.48,2.3c2.89,0,5.38-1.93,7.59-3.8-7.16,1.12-15.22-2.13-19-7"/></g><path class="cls-5" d="M277.5,218c-.14,0,0-3-.33-6.61s-1.07-6.52-.93-6.55a7.16,7.16,0,0,1,.6,1.86,33.35,33.35,0,0,1,.9,9.36A7.15,7.15,0,0,1,277.5,218Z"/><path class="cls-7" d="M174.63,334.08s-9.42,2-17.84.78c-7.89-1.18-25.55,0-25.55,10.44,0,11.6,23.56,8.73,32.75,6.89s18.34-3.5,18.34-3.5Z"/><ellipse class="cls-5" cx="152.56" cy="344.85" rx="0.23" ry="4.19" transform="translate(-71.9 41.84) rotate(-12.67)"/><ellipse class="cls-5" cx="156.12" cy="344.92" rx="0.23" ry="4.21" transform="translate(-45.43 24.42) rotate(-7.81)"/><ellipse class="cls-5" cx="159.36" cy="344.24" rx="0.23" ry="3.67" transform="translate(-40.08 21.56) rotate(-6.88)"/><path class="cls-5" d="M164.67,346.66a12.47,12.47,0,0,1-1.56-6.42,905.15,905.15,0,0,1,1.56,6.42Z"/><path class="cls-5" d="M165.72,342.42a4.06,4.06,0,0,1,1.23-.08,10.44,10.44,0,0,1,3.31.65,3.7,3.7,0,0,1,1,.55,1.55,1.55,0,0,1,.64,1.15,1.74,1.74,0,0,1-2.13,1.55,4.39,4.39,0,0,1-2.46-1.75,7.49,7.49,0,0,1-1.39-2.9,7.37,7.37,0,0,1,1-6,1.2,1.2,0,0,1,.7-.42,1,1,0,0,1,.78.24,2.11,2.11,0,0,1,.59,1.27,6.43,6.43,0,0,1-.12,2.36,6.55,6.55,0,0,1-1.59,3,5.14,5.14,0,0,1-.69.61c-.17.12-.27.18-.28.16s.33-.3.83-.89a6.78,6.78,0,0,0,1.41-2.93,6.24,6.24,0,0,0,.07-2.23,1.76,1.76,0,0,0-.48-1,.6.6,0,0,0-.91.15,7.35,7.35,0,0,0,.39,8.36,4,4,0,0,0,2.19,1.61,1.36,1.36,0,0,0,1.69-1.13,1.19,1.19,0,0,0-.48-.89,3.44,3.44,0,0,0-.91-.52,11.5,11.5,0,0,0-3.2-.77C166.16,342.45,165.72,342.46,165.72,342.42Z"/><path class="cls-5" d="M181.41,347.15l-.24.08-.71.18-2.73.62c-2.38.52-5.83,1.26-10.11,2.08s-9.4,1.76-15.14,2.54a40.9,40.9,0,0,1-9.1.45,19.57,19.57,0,0,1-4.76-.91,13.14,13.14,0,0,1-2.29-1,7.07,7.07,0,0,1-2-1.62l0,0a4.79,4.79,0,0,1-.82-1,6.13,6.13,0,0,1-.48-5.07,8.11,8.11,0,0,1,3-3.95,15.32,15.32,0,0,1,4.29-2.13c.75-.21,1.48-.47,2.23-.64s1.48-.35,2.22-.45c5.91-.93,11.28-.46,15.74-.46,2.24,0,4.26,0,6-.13a40.28,40.28,0,0,0,4.51-.57l1.63-.34,1.17-.33.72-.2.25-.05-.24.1-.71.24-1.16.38-1.62.38a37.9,37.9,0,0,1-4.53.65c-1.78.13-3.81.22-6.05.2-4.47,0-9.84-.4-15.67.55-.73.1-1.45.3-2.19.45s-1.45.43-2.19.64a15,15,0,0,0-4.17,2.08,7.68,7.68,0,0,0-2.86,3.73,5.7,5.7,0,0,0,.43,4.7,4.34,4.34,0,0,0,.74.89h0l0,0a6.76,6.76,0,0,0,1.86,1.49,12.73,12.73,0,0,0,2.2,1,19.21,19.21,0,0,0,4.66.9,40.85,40.85,0,0,0,9-.42c5.73-.76,10.85-1.66,15.14-2.44s7.74-1.47,10.13-1.94l2.75-.54.72-.13Z"/><path class="cls-5" d="M146.94,352.73a15.47,15.47,0,0,1-.23-2.41c-.11-1.49-.28-3.54-.58-5.79s-.67-4.28-1-5.74a15.46,15.46,0,0,1-.41-2.38,11,11,0,0,1,.72,2.31A53,53,0,0,1,147,350.31,11,11,0,0,1,146.94,352.73Z"/><polygon class="cls-12" points="171.73 334.58 177.71 349.54 182.34 348.69 173.46 334.08 171.73 334.58"/><path class="cls-5" d="M249.57,293.58c-1,.32-62.68-17-87.64-24a23.71,23.71,0,0,0-19.3,2.92l-.3.19A23.71,23.71,0,0,0,132.12,298h0a23.7,23.7,0,0,0,10.7,14.84c16.46,10.08,51.29,31.3,52.36,30.89,1.4-.54,44.9-1.67,44.9-1.67L187.74,304.4l24.9,16.09,36.93-26.91Z"/><path class="cls-13" d="M198,274.8,211.16,268,224,276.08l48.17,1.57,7,23.45-69.72-16.16s-12.69,1.12-13.64-1.73S198,274.8,198,274.8Z"/><path class="cls-5" d="M237.5,312.38,231,333.68l.81,6.49h0a33.32,33.32,0,0,0,43.95,3h0a32.65,32.65,0,0,0,12.77-26l-.1-22.25Z"/><ellipse class="cls-15" cx="182.21" cy="300.08" rx="0.23" ry="20.81" transform="translate(-167.27 266.73) rotate(-53.28)"/><ellipse class="cls-14" cx="203.79" cy="274.34" rx="6.81" ry="0.23" transform="translate(-73.99 75.26) rotate(-17.77)"/><path class="cls-14" d="M211.26,276.26a13.65,13.65,0,0,1-2.23.42c-1.38.22-3.28.56-5.36,1s-3.94,1-5.28,1.41a13.64,13.64,0,0,1-2.19.6,9.77,9.77,0,0,1,2.09-.9,47.16,47.16,0,0,1,10.7-2.46A9.78,9.78,0,0,1,211.26,276.26Z"/><ellipse class="cls-14" cx="202.89" cy="281.37" rx="7.41" ry="0.23" transform="translate(-50.85 44.83) rotate(-11.21)"/><path class="cls-15" d="M193.14,243.34l12.1,39.82a1.15,1.15,0,0,0,1,.81l33,2.47a1.15,1.15,0,0,1,1.07,1.15v2.06a1.15,1.15,0,0,1-1.18,1.15L149,289.12a1.15,1.15,0,0,1-1.06-.74l-15.85-41.54a1.15,1.15,0,0,1,1-1.56L192,242.52A1.15,1.15,0,0,1,193.14,243.34Z"/><path class="cls-1" d="M167.73,260.5a2.84,2.84,0,0,0-1.78,2,2.73,2.73,0,0,0,1.16,2.48,3,3,0,0,0,3.3.12,2.75,2.75,0,0,0,.9-3.33,3,3,0,0,0-3.58-1.3"/><path class="cls-5" d="M182.34,348.69,172.81,333l70.07-54.92a28.16,28.16,0,0,1,15.3-6.27h0a28.16,28.16,0,0,1,30.61,30.38l-1.12,13.4-46.51,14.95Z"/><path class="cls-15" d="M272.2,311.47a1,1,0,0,1-.19.17l-.57.47-2.23,1.78-1.62,1.28c-.59.47-1.29.9-2,1.41l-2.33,1.6c-.41.28-.83.58-1.28.86l-1.39.84c-1.9,1.14-4,2.44-6.29,3.62-1.16.6-2.33,1.26-3.58,1.88l-3.87,1.84c-5.33,2.43-11.31,4.88-17.71,7.06-12.8,4.41-24.63,7.59-33.11,10.15-2.12.62-4,1.21-5.72,1.74s-3.13,1-4.3,1.37l-2.71.88-.71.22-.25.06.23-.1.69-.26,2.69-1c1.16-.42,2.61-.9,4.28-1.44s3.58-1.16,5.7-1.81c8.46-2.65,20.27-5.87,33.05-10.28,6.39-2.17,12.36-4.6,17.69-7l3.87-1.81c1.24-.61,2.42-1.26,3.58-1.85,2.33-1.16,4.39-2.44,6.3-3.56l1.4-.82c.44-.28.86-.57,1.28-.85l2.34-1.56c.72-.5,1.43-.92,2-1.38l1.64-1.25,2.28-1.71.6-.44Z"/><path class="cls-15" d="M273.9,318.8a2.72,2.72,0,0,1-.71.37c-.47.21-1.15.49-2,.81a51.22,51.22,0,0,1-14,3c-.91.06-1.65.09-2.17.09a2.73,2.73,0,0,1-.8,0,26.79,26.79,0,0,1,2.93-.36c1.81-.2,4.3-.55,7-1.13s5.13-1.29,6.86-1.85A26.79,26.79,0,0,1,273.9,318.8Z"/><ellipse class="cls-15" cx="206.44" cy="306.87" rx="42.6" ry="0.23" transform="translate(-144.87 191.27) rotate(-37.86)"/><path class="cls-7" d="M236,339c-3.36-1.79-7.13-.73-10.35.35-2.14.72-4.36,1.86-6.54,1.25-1.57-.44-2.74-1.72-3.94-2.82a24.78,24.78,0,0,0-18.11-6.49,7.38,7.38,0,0,0-5,2.25c-3.3,3.58-.81,8.23,2.14,11.24a32.6,32.6,0,0,0,19.7,9.5c6.15.64,14.6-.21,20.84-2.88,3.84-1.65,5.82-6.18,3.8-9.84A6.31,6.31,0,0,0,236,339Z"/><g class="cls-12"><path d="M236,341.86c-3.36-1.79-7.13-.73-10.35.35-2.14.72-4.36,1.86-6.54,1.25-1.57-.44-2.74-1.72-3.94-2.82a24.78,24.78,0,0,0-18.11-6.49,7.38,7.38,0,0,0-5,2.25,5.74,5.74,0,0,0-1.39,2.51,13.07,13.07,0,0,0,3.52,5.87,32.6,32.6,0,0,0,19.7,9.5c6.15.64,14.6-.21,20.84-2.88a7.6,7.6,0,0,0,4.43-5.28,6.43,6.43,0,0,0-.64-1.7A6.31,6.31,0,0,0,236,341.86Z"/></g><path class="cls-5" d="M239.21,346.12a5.82,5.82,0,0,0-.82-2,6.51,6.51,0,0,0-1.8-1.76,7.18,7.18,0,0,0-3.09-1.18c-2.5-.29-5.39.76-8.6,1.63a13.45,13.45,0,0,1-5.22.83,6.92,6.92,0,0,1-2.69-.93,16.75,16.75,0,0,1-2.31-1.74,25.12,25.12,0,0,0-13.76-6.52,14.41,14.41,0,0,0-4.07,0,8.88,8.88,0,0,0-3.15,1.1,8,8,0,0,0-1.93,1.63,19.56,19.56,0,0,0-1.24,1.79,7,7,0,0,1,1.11-1.9,7.89,7.89,0,0,1,1.93-1.74,9,9,0,0,1,3.23-1.2,14.49,14.49,0,0,1,4.17,0,24,24,0,0,1,4.66,1,27,27,0,0,1,4.82,2.13,20.06,20.06,0,0,1,2.35,1.53c.75.59,1.46,1.23,2.18,1.86a16.5,16.5,0,0,0,2.24,1.69,6.5,6.5,0,0,0,2.51.88,13.22,13.22,0,0,0,5.06-.79c3.2-.84,6.14-1.88,8.75-1.54a7.23,7.23,0,0,1,5,3.16,4.67,4.67,0,0,1,.62,1.52A2.13,2.13,0,0,1,239.21,346.12Z"/><path class="cls-5" d="M239.21,346.12a5.82,5.82,0,0,0-.82-2,6.51,6.51,0,0,0-1.8-1.76,7.18,7.18,0,0,0-3.09-1.18c-2.5-.29-5.39.76-8.6,1.63a13.45,13.45,0,0,1-5.22.83,6.92,6.92,0,0,1-2.69-.93,16.75,16.75,0,0,1-2.31-1.74,25.12,25.12,0,0,0-13.76-6.52,14.41,14.41,0,0,0-4.07,0,8.88,8.88,0,0,0-3.15,1.1,8,8,0,0,0-1.93,1.63,19.56,19.56,0,0,0-1.24,1.79,7,7,0,0,1,1.11-1.9,7.89,7.89,0,0,1,1.93-1.74,9,9,0,0,1,3.23-1.2,14.49,14.49,0,0,1,4.17,0,24,24,0,0,1,4.66,1,27,27,0,0,1,4.82,2.13,20.06,20.06,0,0,1,2.35,1.53c.75.59,1.46,1.23,2.18,1.86a16.5,16.5,0,0,0,2.24,1.69,6.5,6.5,0,0,0,2.51.88,13.22,13.22,0,0,0,5.06-.79c3.2-.84,6.14-1.88,8.75-1.54a7.23,7.23,0,0,1,5,3.16,4.67,4.67,0,0,1,.62,1.52A2.13,2.13,0,0,1,239.21,346.12Z"/><path class="cls-5" d="M197.52,345.31a8.57,8.57,0,0,1,1.72-1.19,49.6,49.6,0,0,1,9.12-4.29,8.57,8.57,0,0,1,2-.56,11,11,0,0,1-1.9.86c-1.19.49-2.82,1.19-4.59,2s-3.35,1.65-4.49,2.25A11,11,0,0,1,197.52,345.31Z"/><ellipse class="cls-5" cx="205.34" cy="345.45" rx="7.4" ry="0.23" transform="translate(-129.89 123.82) rotate(-25.8)"/><ellipse class="cls-5" cx="204.72" cy="345.16" rx="0.23" ry="9.31" transform="translate(-196.44 334.38) rotate(-57.79)"/><path class="cls-5" d="M214.62,346.64a10.68,10.68,0,0,1-1.75-1.17c-1.05-.76-2.51-1.81-4.13-2.94s-3.12-2.12-4.2-2.84a10.67,10.67,0,0,1-1.71-1.23,9.07,9.07,0,0,1,1.88,1c1.13.65,2.66,1.61,4.29,2.74s3.06,2.23,4.07,3.06A9.07,9.07,0,0,1,214.62,346.64Z"/></g></g></svg>