<svg width="256" height="256" viewBox="0 0 256 256" fill="none" xmlns="http://www.w3.org/2000/svg">
<path d="M170.433 65.4222C170.433 89.706 151.054 109.278 127.289 109.278C103.524 109.278 84.1445 89.706 84.1445 65.4222C84.1445 41.1384 103.524 21.5667 127.289 21.5667C151.054 21.5667 170.433 41.1384 170.433 65.4222Z" stroke="black" stroke-width="9"/>
<path d="M83.9111 66.8444C86.0556 66.0634 99.5803 61.5765 109.44 58.3154C116.406 56.0113 122.893 52.4565 128.578 47.8184L133.727 43.6182C136.148 41.6433 139.759 42.3564 141.395 45.0177C150.682 60.1205 159.851 66.8444 167.822 66.8444" stroke="black" stroke-width="6"/>
<path d="M58 139.5H196C204.56 139.5 211.5 146.44 211.5 155V226.5H42.5V155C42.5 146.44 49.4396 139.5 58 139.5Z" stroke="black" stroke-width="9"/>
<path d="M99.5556 123.967H152.178C160.707 123.967 167.87 129.816 169.875 137.722H81.8589C83.8631 129.816 91.0263 123.967 99.5556 123.967Z" fill="#DE1D4D" stroke="black" stroke-width="9"/>
<path d="M37 226.5H218C221.038 226.5 223.5 228.962 223.5 232V243.5H31.5V232C31.5 228.962 33.9624 226.5 37 226.5Z" stroke="black" stroke-width="9"/>
<path d="M126.985 109.726L137.722 108.75V123.5H115.433V108.75L126.17 109.726L126.578 109.763L126.985 109.726Z" stroke="black" stroke-width="9"/>
<ellipse cx="112" cy="75.5" rx="5" ry="5.5" fill="black"/>
<ellipse cx="112" cy="75.5" rx="5" ry="5.5" fill="black"/>
<ellipse cx="142.5" cy="75.5" rx="4.5" ry="5.5" fill="black"/>
<ellipse cx="142.5" cy="75.5" rx="4.5" ry="5.5" fill="black"/>
<path d="M117 91C117.587 91.7187 128.378 100.23 139.756 91" stroke="black" stroke-width="3" stroke-linecap="round"/>
<rect x="67.5" y="59.9667" width="16.6" height="22.2889" rx="8.3" stroke="black" stroke-width="9"/>
<rect x="170.478" y="59.9667" width="16.6" height="22.2889" rx="8.3" stroke="black" stroke-width="9"/>
<path d="M75.4468 61.1556C67.4998 2.00002 172 -24 180.622 61.1555" stroke="black" stroke-width="9"/>
<path d="M71.1111 81.0667C67.8914 86.9391 63.3838 99.7115 71.1111 103.822" stroke="black" stroke-width="9"/>
<circle cx="125.156" cy="182.044" r="24.1778" fill="#DE1D4D"/>
<ellipse cx="79" cy="107" rx="11" ry="9" fill="black"/>
</svg>
