<svg width="256" height="256" viewBox="0 0 256 256" fill="none" xmlns="http://www.w3.org/2000/svg">
<rect x="9.95557" y="66.8445" width="156.444" height="25.6" fill="#DE1D4D"/>
<path d="M8.76672 55.5555C8.76672 46.9951 15.7063 40.0555 24.2667 40.0555H146.4C154.96 40.0555 161.9 46.9951 161.9 55.5555V169.933C161.9 170.209 161.676 170.433 161.4 170.433H24.2667C15.7063 170.433 8.76672 163.494 8.76672 154.933V55.5555Z" stroke="black" stroke-width="9"/>
<path d="M164.978 79.6444H208.572C210.933 79.6444 212.973 81.2967 213.463 83.6069L221.859 123.19C222.292 125.228 223.942 126.784 226.001 127.097L241.793 129.489C244.238 129.86 246.044 131.961 246.044 134.433V166.4" stroke="black" stroke-width="9"/>
<path fill-rule="evenodd" clip-rule="evenodd" d="M66.8444 195.556C66.8444 203.018 60.7953 209.067 53.3333 209.067C45.8713 209.067 39.8222 203.018 39.8222 195.556C39.8222 188.094 45.8713 182.044 53.3333 182.044C60.7953 182.044 66.8444 188.094 66.8444 195.556ZM62.5778 195.556C62.5778 200.661 58.4389 204.8 53.3333 204.8C48.2277 204.8 44.0889 200.661 44.0889 195.556C44.0889 190.45 48.2277 186.311 53.3333 186.311C58.4389 186.311 62.5778 190.45 62.5778 195.556Z" fill="black"/>
<path fill-rule="evenodd" clip-rule="evenodd" d="M81.0666 194.133C81.0666 209.45 68.65 221.867 53.3333 221.867C38.0166 221.867 25.6 209.45 25.6 194.133C25.6 178.817 38.0166 166.4 53.3333 166.4C68.65 166.4 81.0666 178.817 81.0666 194.133ZM72.5333 194.133C72.5333 204.737 63.9372 213.333 53.3333 213.333C42.7294 213.333 34.1333 204.737 34.1333 194.133C34.1333 183.529 42.7294 174.933 53.3333 174.933C63.9372 174.933 72.5333 183.529 72.5333 194.133Z" fill="black"/>
<path fill-rule="evenodd" clip-rule="evenodd" d="M214.756 195.556C214.756 203.018 208.706 209.067 201.244 209.067C193.782 209.067 187.733 203.018 187.733 195.556C187.733 188.094 193.782 182.044 201.244 182.044C208.706 182.044 214.756 188.094 214.756 195.556ZM210.489 195.556C210.489 200.661 206.35 204.8 201.244 204.8C196.139 204.8 192 200.661 192 195.556C192 190.45 196.139 186.311 201.244 186.311C206.35 186.311 210.489 190.45 210.489 195.556Z" fill="black"/>
<path fill-rule="evenodd" clip-rule="evenodd" d="M228.978 194.133C228.978 209.45 216.561 221.867 201.244 221.867C185.928 221.867 173.511 209.45 173.511 194.133C173.511 178.817 185.928 166.4 201.244 166.4C216.561 166.4 228.978 178.817 228.978 194.133ZM220.444 194.133C220.444 204.737 211.848 213.333 201.244 213.333C190.641 213.333 182.044 204.737 182.044 194.133C182.044 183.529 190.641 174.933 201.244 174.933C211.848 174.933 220.444 183.529 220.444 194.133Z" fill="black"/>
<path fill-rule="evenodd" clip-rule="evenodd" d="M221.695 175.4H241.297C241.008 181.217 236.2 185.844 230.311 185.844H227.718C228.537 188.462 228.978 191.246 228.978 194.133C228.978 194.371 228.975 194.608 228.969 194.844H230.311C241.171 194.844 250.009 186.189 250.304 175.4C250.309 175.215 250.311 175.03 250.311 174.844V166.4H241.311H201.245H53.3335H13.2667H4.26672V175.4V184.844C4.26672 190.367 8.74388 194.844 14.2667 194.844H25.6091C25.6031 194.608 25.6001 194.371 25.6001 194.133C25.6001 191.246 26.0413 188.462 26.86 185.844H14.2667C13.7144 185.844 13.2667 185.397 13.2667 184.844V175.4H32.8833C37.9533 169.868 45.2384 166.4 53.3335 166.4C61.4286 166.4 68.7136 169.868 73.7836 175.4H180.794C185.864 169.868 193.149 166.4 201.245 166.4C209.34 166.4 216.625 169.868 221.695 175.4ZM174.771 185.844H79.8069C80.6256 188.462 81.0668 191.246 81.0668 194.133C81.0668 194.371 81.0638 194.608 81.0578 194.844H173.52C173.514 194.608 173.511 194.371 173.511 194.133C173.511 191.246 173.952 188.462 174.771 185.844Z" fill="black"/>
<path d="M176.356 99.7111V125C176.356 126.657 177.699 128 179.356 128H204.035C205.912 128 207.328 126.296 206.984 124.451L202.279 99.1624C202.015 97.7415 200.775 96.7111 199.33 96.7111H179.356C177.699 96.7111 176.356 98.0543 176.356 99.7111Z" stroke="black" stroke-width="9"/>
<mask id="path-7-inside-1" fill="white">
<path d="M4.26672 132.267H34.8223C37.5837 132.267 39.8223 134.505 39.8223 137.267V174.933H4.26672V132.267Z"/>
</mask>
<path d="M4.26672 132.267H34.8223C37.5837 132.267 39.8223 134.505 39.8223 137.267V174.933H4.26672V132.267Z" stroke="black" stroke-width="18" mask="url(#path-7-inside-1)"/>
</svg>
