<svg id="Layer_1" enable-background="new 0 0 512 512" height="512" viewBox="0 0 512 512" width="512" xmlns="http://www.w3.org/2000/svg"><g><path d="m256 287.067c-8.284 0-15-6.716-15-15v-32.134c0-25.744 20.797-47.133 47.133-47.133 9.447 0 17.133-7.686 17.133-17.133s-7.686-17.133-17.133-17.133h-64.267c-25.989 0-47.133-21.144-47.133-47.133s21.144-47.133 47.133-47.133c9.447 0 17.133-7.686 17.133-17.133v-32.135c0-8.284 6.716-15 15-15s15 6.716 15 15v32.133c0 25.989-21.144 47.133-47.133 47.133-9.447 0-17.133 7.686-17.133 17.133s7.686 17.133 17.133 17.133h64.267c25.989 0 47.133 21.144 47.133 47.133s-21.143 47.135-47.133 47.135c-9.595 0-17.133 7.807-17.133 17.133v32.134c0 8.284-6.716 15-15 15z" fill="#a733c1"/><path d="m497 512h-482c-8.284 0-15-6.716-15-15v-224.933c0-8.284 6.716-15 15-15h482c8.284 0 15 6.716 15 15v224.933c0 8.284-6.716 15-15 15z" fill="#1861c8"/><path d="m497 257.067h-241v254.933h241c8.284 0 15-6.716 15-15v-224.933c0-8.284-6.716-15-15-15z" fill="#004c9c"/><path d="m272.067 399.533h-32.134c-8.284 0-15-6.716-15-15s6.716-15 15-15h32.134c8.284 0 15 6.716 15 15s-6.716 15-15 15z" fill="#00366d"/><path d="m159.6 369.533h-17.133v-17.133c0-8.284-6.716-15-15-15s-15 6.716-15 15v17.133h-17.134c-8.284 0-15 6.716-15 15s6.716 15 15 15h17.133v17.133c0 8.284 6.716 15 15 15s15-6.716 15-15v-17.133h17.134c8.284 0 15-6.716 15-15s-6.716-15-15-15z" fill="#faf5f5"/><path d="m416.667 369.533h-17.133v-17.133c0-8.284-6.716-15-15-15s-15 6.716-15 15v17.133h-17.134c-8.284 0-15 6.716-15 15s6.716 15 15 15h17.133v17.133c0 8.284 6.716 15 15 15s15-6.716 15-15v-17.133h17.133c8.284 0 15-6.716 15-15s-6.715-15-14.999-15z" fill="#ede6e6"/><path d="m272.067 369.533h-16.067v30h16.067c8.284 0 15-6.716 15-15s-6.716-15-15-15z" fill="#01223c"/></g></svg>