<svg width="840" height="840" viewBox="0 0 840 840" fill="none" xmlns="http://www.w3.org/2000/svg">
<circle cx="420" cy="420" r="420" fill="url(#paint0_linear)"/>
<path d="M420 330.156C370 330.156 330.156 370.781 330.156 420C330.156 470 370 509.844 420 509.844C469.219 509.844 509.844 470 509.844 420C509.844 370.781 469.219 330.156 420 330.156ZM420 478.594C387.969 478.594 361.406 452.812 361.406 420C361.406 387.969 387.188 362.188 420 362.188C452.031 362.188 477.812 387.969 477.812 420C477.812 452.812 452.031 478.594 420 478.594ZM534.062 327.031C534.062 315.312 524.688 305.938 512.969 305.938C501.25 305.938 491.875 315.312 491.875 327.031C491.875 338.75 501.25 348.125 512.969 348.125C524.688 348.125 534.062 338.75 534.062 327.031ZM593.438 348.125C591.875 320 585.625 295 565.312 274.688C545 254.375 520 248.125 491.875 246.562C462.969 245 376.25 245 347.344 246.562C319.219 248.125 295 254.375 273.906 274.688C253.594 295 247.344 320 245.781 348.125C244.219 377.031 244.219 463.75 245.781 492.656C247.344 520.781 253.594 545 273.906 566.094C295 586.406 319.219 592.656 347.344 594.219C376.25 595.781 462.969 595.781 491.875 594.219C520 592.656 545 586.406 565.312 566.094C585.625 545 591.875 520.781 593.438 492.656C595 463.75 595 377.031 593.438 348.125ZM555.938 523.125C550.469 538.75 537.969 550.469 523.125 556.719C499.688 566.094 445 563.75 420 563.75C394.219 563.75 339.531 566.094 316.875 556.719C301.25 550.469 289.531 538.75 283.281 523.125C273.906 500.469 276.25 445.781 276.25 420C276.25 395 273.906 340.312 283.281 316.875C289.531 302.031 301.25 290.312 316.875 284.062C339.531 274.688 394.219 277.031 420 277.031C445 277.031 499.688 274.688 523.125 284.062C537.969 289.531 549.688 302.031 555.938 316.875C565.312 340.312 562.969 395 562.969 420C562.969 445.781 565.312 500.469 555.938 523.125Z" fill="white"/>
<defs>
<linearGradient id="paint0_linear" x1="547" y1="1466.33" x2="1739.58" y2="291.018" gradientUnits="userSpaceOnUse">
<stop stop-color="white"/>
<stop offset="0.147864" stop-color="#F6640E"/>
<stop offset="0.443974" stop-color="#BA03A7"/>
<stop offset="0.733337" stop-color="#6A01B9"/>
<stop offset="1" stop-color="#6B01B9"/>
</linearGradient>
</defs>
</svg>
