<svg width="441" height="136" viewBox="0 0 441 136" fill="none" xmlns="http://www.w3.org/2000/svg">
<path d="M0 20.3538C0 9.11272 9.11273 0 20.3538 0H420.646C431.887 0 441 9.11273 441 20.3538V115.338C441 126.58 431.887 135.692 420.646 135.692H20.3538C9.11273 135.692 0 126.58 0 115.338V20.3538Z" fill="black"/>
<path fill-rule="evenodd" clip-rule="evenodd" d="M32.5063 25.7556C31.5192 26.8004 30.9391 28.4186 30.9391 30.5184V105.482C30.9391 107.581 31.5192 109.2 32.5063 110.244L32.7574 110.489L74.7507 68.4953V67.5047L32.7574 25.5114L32.5063 25.7556Z" fill="#00D7FE"/>
<mask id="mask0" mask-type="alpha" maskUnits="userSpaceOnUse" x="74" y="53" width="36" height="30">
<path d="M88.7441 82.4987L74.7509 68.4953V67.5047L88.7509 53.5047L105.651 63.1049C110.387 65.7984 110.387 70.2016 105.651 72.8917L89.0664 82.3156L88.7441 82.4987Z" fill="white"/>
</mask>
<g mask="url(#mask0)">
<path fill-rule="evenodd" clip-rule="evenodd" d="M88.7441 82.4987L74.7509 68.4953V67.5047L88.7509 53.5047L105.651 63.1049C110.387 65.7984 110.387 70.2016 105.651 72.8917L89.0664 82.3156L88.7441 82.4987Z" fill="url(#paint0_linear)"/>
</g>
<mask id="mask1" mask-type="alpha" maskUnits="userSpaceOnUse" x="32" y="68" width="58" height="44">
<path d="M89.0664 82.3155L74.7509 68L32.5065 110.244C34.0703 111.896 36.6485 112.1 39.5523 110.451L89.0664 82.3155Z" fill="white"/>
</mask>
<g mask="url(#mask1)">
<path fill-rule="evenodd" clip-rule="evenodd" d="M89.0664 82.3155L74.7509 68L32.5065 110.244C34.0703 111.896 36.6485 112.1 39.5523 110.451L89.0664 82.3155Z" fill="url(#paint1_linear)"/>
</g>
<mask id="mask2" mask-type="alpha" maskUnits="userSpaceOnUse" x="32" y="24" width="58" height="44">
<path d="M89.0664 53.6845L39.5523 25.5487C36.6485 23.9 34.0703 24.1036 32.5065 25.7556L74.7509 68L89.0664 53.6845Z" fill="white"/>
</mask>
<g mask="url(#mask2)">
<path fill-rule="evenodd" clip-rule="evenodd" d="M89.0664 53.6845L39.5523 25.5487C36.6485 23.9 34.0703 24.1036 32.5065 25.7556L74.7509 68L89.0664 53.6845Z" fill="url(#paint2_linear)"/>
</g>
<path fill-rule="evenodd" clip-rule="evenodd" d="M352.94 105.156H359.27V62.7487H352.94V105.156ZM409.955 78.0243L402.699 96.4106H402.481L394.951 78.0243H388.132L399.425 103.721L392.986 118.016H399.591L416.994 78.0243H409.955ZM374.057 100.339C371.981 100.339 369.091 99.3042 369.091 96.7396C369.091 93.4661 372.694 92.2109 375.801 92.2109C378.586 92.2109 379.892 92.8113 381.585 93.6289C381.093 97.5572 377.711 100.339 374.057 100.339ZM374.821 77.0982C370.238 77.0982 365.492 79.1166 363.528 83.5911L369.145 85.9351C370.346 83.5911 372.582 82.8244 374.929 82.8244C378.203 82.8244 381.531 84.7885 381.585 88.2826V88.7168C380.438 88.0621 377.986 87.0817 374.983 87.0817C368.928 87.0817 362.761 90.4096 362.761 96.6277C362.761 102.303 367.727 105.96 373.291 105.96C377.548 105.96 379.892 104.05 381.368 101.811H381.585V105.085H387.694V88.8288C387.694 81.2979 382.077 77.0982 374.821 77.0982ZM335.7 83.1874H326.697V68.6513H335.7C340.433 68.6513 343.119 72.5694 343.119 75.9177C343.119 79.2048 340.433 83.1874 335.7 83.1874ZM335.538 62.7487H320.371V105.156H326.697V89.09H335.538C342.553 89.09 349.449 84.0083 349.449 75.9177C349.449 67.827 342.553 62.7487 335.538 62.7487ZM252.83 100.346C248.457 100.346 244.797 96.6854 244.797 91.658C244.797 86.5763 248.457 82.8583 252.83 82.8583C257.148 82.8583 260.534 86.5763 260.534 91.658C260.534 96.6854 257.148 100.346 252.83 100.346ZM260.096 80.3989H259.879C258.458 78.7061 255.727 77.1762 252.284 77.1762C245.068 77.1762 238.457 83.513 238.457 91.658C238.457 99.7452 245.068 106.031 252.284 106.031C255.727 106.031 258.458 104.501 259.879 102.751H260.096V104.827C260.096 110.35 257.148 113.301 252.392 113.301C248.511 113.301 246.106 110.512 245.122 108.162L239.603 110.458C241.187 114.285 245.397 118.983 252.392 118.983C259.825 118.983 266.111 114.61 266.111 103.955V78.048H260.096V80.3989ZM270.483 105.156H276.824V62.7453H270.483V105.156ZM286.166 91.1661C286.003 85.5925 290.484 82.7498 293.707 82.7498C296.224 82.7498 298.355 84.0049 299.064 85.8096L286.166 91.1661ZM305.841 86.3558C304.641 83.1331 300.977 77.1762 293.49 77.1762C286.057 77.1762 279.883 83.0211 279.883 91.6037C279.883 99.6909 286.003 106.031 294.199 106.031C300.814 106.031 304.641 101.988 306.225 99.6367L301.306 96.3563C299.667 98.7615 297.425 100.346 294.199 100.346C290.976 100.346 288.68 98.87 287.204 95.9764L306.496 87.9977L305.841 86.3558ZM152.143 81.6032V87.7229H166.787C166.35 91.1661 165.203 93.6798 163.456 95.4302C161.322 97.5606 157.988 99.9081 152.143 99.9081C143.126 99.9081 136.073 92.6417 136.073 83.625C136.073 74.6048 143.126 67.3385 152.143 67.3385C157.007 67.3385 160.559 69.2518 163.181 71.7112L167.5 67.3928C163.836 63.8953 158.975 61.2154 152.143 61.2154C139.791 61.2154 129.407 71.2736 129.407 83.625C129.407 95.9764 139.791 106.031 152.143 106.031C158.809 106.031 163.836 103.847 167.771 99.7452C171.815 95.7016 173.073 90.0195 173.073 85.4263C173.073 84.0049 172.965 82.6955 172.744 81.6032H152.143ZM189.726 100.346C185.353 100.346 181.581 96.7396 181.581 91.6037C181.581 86.4101 185.353 82.8583 189.726 82.8583C194.095 82.8583 197.868 86.4101 197.868 91.6037C197.868 96.7396 194.095 100.346 189.726 100.346ZM189.726 77.1762C181.744 77.1762 175.241 83.2416 175.241 91.6037C175.241 99.9081 181.744 106.031 189.726 106.031C197.705 106.031 204.208 99.9081 204.208 91.6037C204.208 83.2416 197.705 77.1762 189.726 77.1762ZM221.319 100.346C216.946 100.346 213.174 96.7396 213.174 91.6037C213.174 86.4101 216.946 82.8583 221.319 82.8583C225.691 82.8583 229.46 86.4101 229.46 91.6037C229.46 96.7396 225.691 100.346 221.319 100.346ZM221.319 77.1762C213.34 77.1762 206.837 83.2416 206.837 91.6037C206.837 99.9081 213.34 106.031 221.319 106.031C229.297 106.031 235.8 99.9081 235.8 91.6037C235.8 83.2416 229.297 77.1762 221.319 77.1762Z" fill="#FFFFFE"/>
<path d="M147.953 42.268C147.217 43.3215 146.188 44.1116 144.867 44.6383C143.555 45.1551 142.024 45.4135 140.275 45.4135C138.506 45.4135 136.936 45.0011 135.564 44.1762C134.193 43.3414 133.129 42.1587 132.374 40.6282C131.629 39.0977 131.246 37.3237 131.226 35.3062V33.4129C131.226 30.1432 131.986 27.6089 133.507 25.81C135.038 24.0112 137.184 23.1118 139.947 23.1118C142.213 23.1118 144.037 23.6932 145.418 24.856C146.8 26.0088 147.644 27.6486 147.953 29.7755H145.09C144.554 26.9033 142.844 25.4672 139.962 25.4672C138.044 25.4672 136.588 26.143 135.594 27.4946C134.61 28.8363 134.113 30.7842 134.103 33.3384V35.1124C134.103 37.5473 134.66 39.4853 135.773 40.9264C136.886 42.3575 138.392 43.073 140.29 43.073C141.363 43.073 142.303 42.9538 143.108 42.7153C143.913 42.4767 144.578 42.0742 145.105 41.5077V36.633H140.081V34.3074H147.953V42.268ZM164.091 35.0826H154.684V42.7749H165.611V45.1154H151.822V23.4099H165.462V25.7653H154.684V32.7421H164.091V35.0826ZM183.554 25.7653H176.577V45.1154H173.73V25.7653H166.768V23.4099H183.554V25.7653ZM194.99 45.1154H192.127V23.4099H194.99V45.1154ZM213.871 25.7653H206.894V45.1154H204.047V25.7653H197.085V23.4099H213.871V25.7653ZM238.932 34.9633C238.932 37.0901 238.575 38.9486 237.859 40.5388C237.144 42.119 236.13 43.3265 234.818 44.1613C233.506 44.9961 231.976 45.4135 230.226 45.4135C228.517 45.4135 227.001 44.9961 225.68 44.1613C224.358 43.3165 223.329 42.119 222.594 40.5686C221.868 39.0082 221.496 37.2044 221.476 35.1571V33.5918C221.476 31.5047 221.838 29.6612 222.564 28.0611C223.289 26.461 224.313 25.2386 225.635 24.3938C226.967 23.5391 228.487 23.1118 230.197 23.1118C231.936 23.1118 233.466 23.5341 234.788 24.3789C236.12 25.2137 237.144 26.4312 237.859 28.0313C238.575 29.6214 238.932 31.4749 238.932 33.5918V34.9633ZM236.085 33.562C236.085 30.9879 235.568 29.0152 234.535 27.6437C233.501 26.2622 232.055 25.5715 230.197 25.5715C228.388 25.5715 226.962 26.2622 225.918 27.6437C224.884 29.0152 224.353 30.9233 224.323 33.3682V34.9633C224.323 37.4578 224.845 39.4207 225.888 40.8518C226.942 42.273 228.388 42.9836 230.226 42.9836C232.075 42.9836 233.506 42.3128 234.52 40.9711C235.533 39.6195 236.055 37.6864 236.085 35.172V33.562ZM258.992 45.1154H256.114L245.187 28.3891V45.1154H242.31V23.4099H245.187L256.144 40.2108V23.4099H258.992V45.1154Z" fill="white"/>
<path d="M20.3538 3.39231H420.646V-3.39231H20.3538V3.39231ZM437.608 20.3538V115.338H444.392V20.3538H437.608ZM420.646 132.3H20.3538V139.085H420.646V132.3ZM3.39231 115.338V20.3538H-3.39231V115.338H3.39231ZM20.3538 132.3C10.9862 132.3 3.39231 124.706 3.39231 115.338H-3.39231C-3.39231 128.453 7.23921 139.085 20.3538 139.085V132.3ZM437.608 115.338C437.608 124.706 430.014 132.3 420.646 132.3V139.085C433.761 139.085 444.392 128.453 444.392 115.338H437.608ZM420.646 3.39231C430.014 3.39231 437.608 10.9862 437.608 20.3538H444.392C444.392 7.23921 433.761 -3.39231 420.646 -3.39231V3.39231ZM20.3538 -3.39231C7.23921 -3.39231 -3.39231 7.2392 -3.39231 20.3538H3.39231C3.39231 10.9862 10.9862 3.39231 20.3538 3.39231V-3.39231Z" fill="#A6A6A6"/>
<defs>
<linearGradient id="paint0_linear" x1="102.57" y1="68.001" x2="74.7509" y2="68.001" gradientUnits="userSpaceOnUse">
<stop stop-color="#FFBC00"/>
<stop offset="1" stop-color="#FFDA03"/>
</linearGradient>
<linearGradient id="paint1_linear" x1="81.2865" y1="81.4702" x2="44.977" y2="111.399" gradientUnits="userSpaceOnUse">
<stop stop-color="#E22652"/>
<stop offset="1" stop-color="#FF3A44"/>
</linearGradient>
<linearGradient id="paint2_linear" x1="38.9032" y1="30.8412" x2="63.1115" y2="52.1277" gradientUnits="userSpaceOnUse">
<stop stop-color="#0ED574"/>
<stop offset="1" stop-color="#07F076"/>
</linearGradient>
</defs>
</svg>
