<svg width="840" height="840" viewBox="0 0 840 840" fill="none" xmlns="http://www.w3.org/2000/svg">
<circle cx="420" cy="420" r="420" fill="url(#paint0_linear)"/>
<path d="M578.594 338.75C594.219 327.031 608.281 312.969 619.219 296.562C605.156 302.812 588.75 307.5 572.344 309.062C589.531 298.906 602.031 283.281 608.281 263.75C592.656 273.125 574.688 280.156 556.719 284.062C541.094 267.656 520 258.281 496.562 258.281C451.25 258.281 414.531 295 414.531 340.312C414.531 346.562 415.312 352.812 416.875 359.062C348.906 355.156 287.969 322.344 247.344 273.125C240.312 284.844 236.406 298.906 236.406 314.531C236.406 342.656 250.469 367.656 273.125 382.5C259.844 381.719 246.562 378.594 235.625 372.344V373.125C235.625 412.969 263.75 445.781 301.25 453.594C295 455.156 287.188 456.719 280.156 456.719C274.688 456.719 270 455.938 264.531 455.156C274.688 487.969 305.156 511.406 341.094 512.188C312.969 534.062 277.812 547.344 239.531 547.344C232.5 547.344 226.25 546.562 220 545.781C255.938 569.219 298.906 582.5 345.781 582.5C496.562 582.5 578.594 458.281 578.594 349.688C578.594 345.781 578.594 342.656 578.594 338.75Z" fill="white"/>
<defs>
<linearGradient id="paint0_linear" x1="-0.00528223" y1="0" x2="-0.00528223" y2="840.011" gradientUnits="userSpaceOnUse">
<stop stop-color="#4ECEF6"/>
<stop offset="0.537697" stop-color="#4E8FF6"/>
<stop offset="1" stop-color="#226ADB"/>
</linearGradient>
</defs>
</svg>
