<svg id="Layer_1" enable-background="new 0 0 512 512" height="512" viewBox="0 0 512 512" width="512" xmlns="http://www.w3.org/2000/svg"><g><path d="m497 321.333h-482c-8.284 0-15 6.716-15 15v160.667c0 8.284 6.716 15 15 15h482c8.284 0 15-6.716 15-15v-160.667c0-8.284-6.716-15-15-15z" fill="#ec8600"/><path d="m512 497v-160.667c0-8.284-6.716-15-15-15h-241v190.667h241c8.284 0 15-6.716 15-15z" fill="#ff4d05"/><path d="m497 287.067h-482c-8.284 0-15-6.716-15-15v-257.067c0-8.284 6.716-15 15-15h482c8.284 0 15 6.716 15 15v257.067c0 8.284-6.716 15-15 15z" fill="#00366d"/><path d="m512 272.067v-257.067c0-8.284-6.716-15-15-15h-241v287.067h241c8.284 0 15-6.716 15-15z" fill="#01223c"/><path d="m30 30h452v227.067h-452z" fill="#ff4a4a"/><path d="m256 30h226v227.067h-226z" fill="#ff1f3d"/><path d="m223.866 222.8c-2.427 0-4.859-.588-7.077-1.775-4.877-2.61-7.922-7.693-7.922-13.225v-128.533c0-5.532 3.045-10.615 7.922-13.225 4.877-2.611 10.795-2.324 15.398.744l96.4 64.267c4.173 2.782 6.68 7.466 6.68 12.481s-2.507 9.699-6.68 12.481l-96.4 64.267c-2.51 1.672-5.411 2.518-8.321 2.518z" fill="#faf5f5"/><path d="m191.733 431.667h-16.067c-8.284 0-15-6.716-15-15s6.716-15 15-15h16.067c8.284 0 15 6.716 15 15s-6.715 15-15 15z" fill="#ffd845"/><path d="m336.333 431.667h-16.066c-8.284 0-15-6.716-15-15s6.716-15 15-15h16.066c8.284 0 15 6.716 15 15s-6.716 15-15 15z" fill="#ecbe00"/><path d="m335.267 143.533c0-5.015-2.507-9.699-6.68-12.481l-72.587-48.391v121.745l72.587-48.391c4.173-2.783 6.68-7.467 6.68-12.482z" fill="#ede6e6"/></g></svg>